<svg width="289" height="192" viewBox="0 0 289 192" fill="none" xmlns="http://www.w3.org/2000/svg">
<rect width="154.951" height="196.488" rx="7" transform="matrix(1 0 -0.580443 0.814301 134.049 32)" fill="#73BDE7"/>
<rect width="114.795" height="145.567" rx="7" transform="matrix(1 0 -0.580443 0.814301 143.943 50)" fill="#5D94B3"/>
<path d="M31.8103 61.114C31.9922 60.8411 32.0739 60.5341 32.0553 60.1929C31.9913 59.92 31.777 59.7494 31.4717 59.7153C30.6927 59.7153 29.472 59.8859 27.8961 60.1588C23.4142 60.9776 16.0537 62.2398 5.76912 64.0137C4.73067 64.2184 3.96127 64.696 3.41545 65.5147C2.82413 66.4017 2.97948 66.8452 3.92248 66.8452C5.88119 66.6746 9.57056 66.0605 15.0543 64.9689C11.0372 70.2566 8.39874 73.9068 7.03418 75.9536C4.30505 80.0473 2.14929 83.527 0.648908 86.3925C0.185082 87.2113 0.463428 87.6548 1.48843 87.6548C2.63643 87.6548 3.66528 86.9725 4.55225 85.642L6.07601 83.3564C6.43989 82.8106 6.5078 82.4012 6.36175 82.1283C7.19394 80.6955 8.17636 79.1603 9.24527 77.557C11.656 73.9409 14.8358 69.5402 18.844 64.389C21.5493 63.7749 23.3348 63.4338 24.2457 63.2973C24.4145 63.5361 24.8156 63.6726 25.3668 63.7067L29.7071 62.5468C30.6043 62.308 31.3327 61.8304 31.8103 61.114Z" fill="#F9FAFE"/>
<path d="M31.7532 86.0514C32.2215 85.1644 32.5761 84.448 32.9035 83.834C33.7264 82.2306 34.604 80.7296 35.5592 79.2968C35.6957 79.0921 36.0596 78.5463 36.7101 77.6934C37.3607 76.8406 37.7611 76.363 37.8293 76.2607C38.1932 75.7148 38.2884 75.2031 38.1968 74.7255C38.0597 74.3162 37.7269 74.0774 37.1119 74.0774C36.3739 74.0774 34.2518 74.862 30.8276 76.4312C27.5537 77.8981 25.1997 79.0921 23.6836 80.0132C26.227 76.8747 27.8968 74.862 28.6931 73.975L33.4937 68.6191C35.2228 66.6405 36.5697 65.1736 37.4753 64.1843C38.3171 63.2291 38.8039 62.6833 38.9176 62.5127C39.236 62.0351 39.3494 61.5575 39.2578 61.0799C39.2072 60.6023 38.9154 60.3635 38.3824 60.3635C37.7264 60.3635 36.8888 60.9434 35.8923 62.0692L26.2594 72.9516C23.429 76.0901 20.9632 79.2968 18.7799 82.5718C18.6435 82.7764 18.3933 83.1517 18.0932 83.6634C17.7293 84.2092 17.5246 84.5163 17.4791 84.5845C17.1607 85.0621 17.0473 85.5397 17.1617 85.9832C17.3398 86.3925 17.7363 86.5972 18.3513 86.5972C18.6793 86.5972 19.2985 86.222 20.2908 85.4715C20.9599 84.9597 21.6108 84.4139 22.2617 83.8681C24.3966 82.2647 28.071 80.3202 33.2847 78.0346L30.7378 82.1624C28.7185 85.4373 28.5516 87.0407 30.2736 87.0407C30.7656 87.0407 31.2391 86.6996 31.7532 86.0514Z" fill="#F9FAFE"/>
<path d="M52.7875 85.1644C53.0149 84.8233 53.0783 84.4821 52.9778 84.141C52.8317 83.8681 52.5354 83.6975 52.1254 83.6975C51.7974 83.6975 51.2189 83.7657 50.4764 83.834C49.734 83.9022 49.1782 83.9363 48.8502 83.9363C47.6202 83.9363 46.8726 83.4587 46.5481 82.4694C51.8763 80.6273 55.3818 78.444 57.0647 75.9195C57.7015 74.9643 57.8236 74.0432 57.3854 73.2245C56.9472 72.4058 56.2362 71.9964 55.2112 71.9964C53.4482 71.9964 51.4446 72.8492 49.1822 74.5208C47.243 75.9536 45.7276 77.4888 44.6359 79.1262C44.4085 79.4674 44.1311 79.945 43.8675 80.5249H42.9245C42.3505 80.5249 41.9312 80.3543 41.5846 80.0132C41.238 79.6721 40.9418 79.5015 40.6958 79.5015C39.6298 79.5015 38.7784 79.9791 38.1416 80.9343C37.6412 81.6848 37.8879 82.2988 38.9635 82.7764C39.7793 83.1517 40.6906 83.3223 41.7566 83.3223H42.9866C42.8933 85.6761 44.4161 86.836 47.5321 86.836C50.2791 86.836 52.0597 86.2561 52.7875 85.1644ZM53.7348 76.056C52.9843 77.1817 50.9355 78.4098 47.5886 79.7403L47.9979 79.1262C48.612 78.2052 49.3673 77.3182 50.3459 76.4653C51.4381 75.4419 52.3533 74.9302 53.0913 74.9302C53.4193 74.9302 53.6563 75.0667 53.8479 75.2713C53.9119 75.5443 53.9167 75.7831 53.7348 76.056Z" fill="#F9FAFE"/>
<path d="M104.682 63.195C105.342 62.2057 104.658 61.6939 102.608 61.6939C101.993 61.6939 100.143 61.7622 97.0595 61.8986C93.9938 62.0692 92.4313 62.1374 92.3493 62.1374L91.684 61.9669C91.1465 62.0351 90.6866 62.1715 90.3041 62.3762C89.1699 62.4786 88.3636 62.5809 87.8854 62.6833C86.8425 62.9562 86.1368 63.3997 85.7047 64.0478C85.1361 64.9007 85.4283 65.4465 86.6038 65.6512C84.1918 68.0392 82.6082 69.6766 81.8983 70.4954C79.2045 73.4292 76.5247 76.7724 73.8225 80.4567C73.021 80.7978 72.5294 81.1049 72.3247 81.4119C70.4825 84.1751 69.5689 86.222 69.6022 87.5865C69.6118 88.0641 69.8809 88.337 70.4549 88.337C70.8239 88.337 71.2839 88.2006 71.8758 87.9277C72.3858 87.6548 72.7544 87.3477 72.9591 87.0407C73.0501 86.9042 73.3547 86.3243 73.9777 85.2668C74.496 84.2433 75.0236 83.3905 75.433 82.7764C76.7293 80.8319 78.2396 78.751 80.0231 76.5677C83.8179 76.5336 88.1588 75.9877 92.9638 74.9302C94.5032 74.5891 95.5868 74.0091 96.1327 73.1904C96.724 72.3034 96.4866 71.8599 95.4206 71.8599C94.5462 72.0646 93.9632 72.2011 93.6307 72.2693C90.9846 72.9175 87.2632 73.3951 82.4028 73.7362C85.1101 70.5977 87.8632 67.698 90.6849 65.003C95.0079 64.7301 98.6066 64.5595 101.395 64.5595C101.477 64.5595 101.618 64.5936 101.823 64.5936C101.941 64.6619 102.105 64.6619 102.228 64.6619C102.556 64.6619 102.998 64.4913 103.553 64.1502C104.109 63.809 104.5 63.4679 104.682 63.195Z" fill="#F9FAFE"/>
<path d="M112.771 83.5611C113.407 82.6059 113.174 82.0942 112.026 82.0942C111.862 82.0942 111.571 82.1624 111.238 82.2306C110.865 82.2988 110.573 82.3671 110.491 82.3671C108.692 82.6059 106.902 82.7082 105.016 82.7082C102.884 82.7082 101.996 82.5035 102.291 82.06C102.805 81.4119 104.294 80.2861 106.757 78.6828C108.405 77.6252 110.053 76.5677 111.742 75.5101C115.343 73.1222 117.66 71.5529 118.716 70.7683C120.742 69.2673 122.207 67.8686 123.026 66.6405C124.754 64.0478 124.02 62.7515 120.904 62.7515C118.854 62.7515 115.542 63.5361 110.993 65.0712C110.146 65.1736 109.394 65.3783 108.716 65.7194C107.596 66.2311 106.886 66.7428 106.567 67.2204C105.817 68.3462 105.986 68.892 107.093 68.892C107.462 68.892 108.509 68.5509 110.194 67.8686C114.024 66.3676 116.925 65.583 118.811 65.583C119.795 65.583 120.032 66.0264 119.464 66.8793C118.508 68.3121 115.358 70.7001 110.118 74.0091C106.44 76.3289 104.364 77.6593 103.809 78.0005C101.104 79.8426 99.3658 81.3437 98.638 82.4353C97.228 84.5504 98.4317 85.5738 102.245 85.5738C105.033 85.5738 107.647 85.4032 110.216 84.9939C111.419 84.7892 112.27 84.3116 112.771 83.5611Z" fill="#F9FAFE"/>
<path d="M133.746 85.1644C133.974 84.8233 134.037 84.4821 133.937 84.141C133.791 83.8681 133.494 83.6975 133.084 83.6975C132.756 83.6975 132.178 83.7657 131.435 83.834C130.693 83.9022 130.137 83.9363 129.809 83.9363C128.579 83.9363 127.832 83.4587 127.507 82.4694C132.835 80.6273 136.341 78.444 138.024 75.9195C138.661 74.9643 138.783 74.0432 138.344 73.2245C137.906 72.4058 137.195 71.9964 136.17 71.9964C134.407 71.9964 132.404 72.8492 130.141 74.5208C128.202 75.9536 126.687 77.4888 125.595 79.1262C125.367 79.4674 125.09 79.945 124.826 80.5249H123.883C123.309 80.5249 122.89 80.3543 122.544 80.0132C122.197 79.6721 121.901 79.5015 121.655 79.5015C120.589 79.5015 119.737 79.9791 119.101 80.9343C118.6 81.6848 118.847 82.2988 119.922 82.7764C120.738 83.1517 121.65 83.3223 122.716 83.3223H123.946C123.852 85.6761 125.375 86.836 128.491 86.836C131.238 86.836 133.019 86.2561 133.746 85.1644ZM134.694 76.056C133.943 77.1817 131.895 78.4098 128.548 79.7403L128.957 79.1262C129.571 78.2052 130.326 77.3182 131.305 76.4653C132.397 75.4419 133.312 74.9302 134.05 74.9302C134.378 74.9302 134.615 75.0667 134.807 75.2713C134.871 75.5443 134.876 75.7831 134.694 76.056Z" fill="#F9FAFE"/>
<path d="M149.429 127.071C150.066 126.116 149.892 125.638 148.99 125.638C148.17 125.638 147.232 126.184 146.263 127.208C143.118 130.448 140.165 133.28 137.402 135.702C133.337 139.216 130.315 141.842 128.272 143.616C128.091 140.444 128.006 137.988 127.977 136.248C127.971 135.088 127.825 134.508 127.497 134.508C126.841 134.508 125.37 135.361 123.003 137.067C118.05 140.683 115.105 142.764 114.04 143.378C113.711 142.764 114.006 141.399 114.947 139.25C115.778 137.203 116.851 135.224 118.079 133.382C118.466 132.802 119.485 131.335 121.177 128.981C122.806 126.662 123.847 125.161 124.302 124.478C125.462 122.739 126.158 121.511 126.449 120.828C126.799 119.873 126.566 119.361 125.746 119.361C125.172 119.361 124.561 119.6 123.956 120.078C122.167 121.408 120.665 123.046 119.346 125.024C118.892 125.707 119.047 126.15 119.767 126.423C117.515 129.493 116.046 131.574 115.364 132.598C111.543 138.329 109.734 143.071 110.003 146.789C109.967 147.335 110.299 147.574 110.914 147.574C111.488 147.574 112.527 147.062 114.052 146.004C118.458 142.9 121.854 140.512 124.221 138.806L124.666 146.38C124.676 147.164 125.082 147.54 125.902 147.54C126.804 147.54 127.692 147.13 128.693 146.243C129.435 145.561 131.784 143.514 135.675 140.137C139.198 137.067 141.92 134.644 143.841 132.87C146.853 130.073 148.701 128.163 149.429 127.071Z" fill="#F9FAFE"/>
<path d="M155.657 147.164C155.885 146.823 155.948 146.482 155.848 146.141C155.702 145.868 155.405 145.697 154.995 145.697C154.667 145.697 154.089 145.766 153.346 145.834C152.604 145.902 152.048 145.936 151.72 145.936C150.49 145.936 149.742 145.459 149.418 144.469C154.746 142.627 158.252 140.444 159.935 137.919C160.571 136.964 160.693 136.043 160.255 135.224C159.817 134.406 159.106 133.996 158.081 133.996C156.318 133.996 154.314 134.849 152.052 136.521C150.113 137.953 148.597 139.489 147.506 141.126C147.278 141.467 147.001 141.945 146.737 142.525H145.794C145.22 142.525 144.801 142.354 144.454 142.013C144.108 141.672 143.812 141.501 143.566 141.501C142.5 141.501 141.648 141.979 141.011 142.934C140.511 143.685 140.758 144.299 141.833 144.776C142.649 145.152 143.56 145.322 144.626 145.322H145.856C145.763 147.676 147.286 148.836 150.402 148.836C153.149 148.836 154.93 148.256 155.657 147.164ZM156.605 138.056C155.854 139.182 153.805 140.41 150.458 141.74L150.868 141.126C151.482 140.205 152.237 139.318 153.216 138.465C154.308 137.442 155.223 136.93 155.961 136.93C156.289 136.93 156.526 137.067 156.718 137.271C156.782 137.544 156.787 137.783 156.605 138.056Z" fill="#F9FAFE"/>
<path d="M181.68 124.717C181.953 124.308 181.902 123.83 181.656 123.216C181.363 122.67 180.994 122.363 180.502 122.363C179.969 122.363 179.045 123.012 177.775 124.24C173.356 128.47 169.666 132.836 166.664 137.339C165.891 138.499 164.904 140.103 163.703 142.15C163.143 142.559 162.52 143.309 161.815 144.367C161.042 145.527 160.624 146.584 160.579 147.574C160.494 148.563 160.85 149.075 161.67 149.075C161.875 149.075 162.189 148.972 162.612 148.768C162.972 148.597 163.25 148.427 163.363 148.256C163.432 148.154 163.527 147.949 163.668 147.676C163.791 147.369 163.927 147.164 164.018 147.028C166.383 142.866 168.134 139.932 169.225 138.295C171.841 134.372 175.071 130.448 178.916 126.525L179.431 126.184C180.478 125.843 181.248 125.365 181.68 124.717Z" fill="#F9FAFE"/>
<path d="M192.611 124.717C192.883 124.308 192.833 123.83 192.586 123.216C192.294 122.67 191.925 122.363 191.433 122.363C190.9 122.363 189.976 123.012 188.706 124.24C184.287 128.47 180.597 132.836 177.595 137.339C176.821 138.499 175.835 140.103 174.634 142.15C174.074 142.559 173.451 143.309 172.746 144.367C171.972 145.527 171.554 146.584 171.51 147.574C171.424 148.563 171.78 149.075 172.6 149.075C172.805 149.075 173.119 148.972 173.543 148.768C173.903 148.597 174.18 148.427 174.294 148.256C174.362 148.154 174.458 147.949 174.599 147.676C174.721 147.369 174.858 147.164 174.949 147.028C177.313 142.866 179.064 139.932 180.156 138.295C182.771 134.372 186.002 130.448 189.847 126.525L190.362 126.184C191.409 125.843 192.178 125.365 192.611 124.717Z" fill="#F9FAFE"/>
<path d="M225.371 123.694C225.962 122.807 225.766 122.363 224.782 122.363C223.921 122.363 223.161 122.705 222.542 123.387C219.638 126.389 216.008 130.79 211.695 136.521C211.243 135.907 210.733 135.566 210.118 135.566C208.396 135.566 205.841 136.691 202.436 138.909C198.967 141.16 196.664 143.139 195.549 144.81C194.708 146.073 194.417 147.062 194.719 147.778C194.997 148.529 195.854 148.904 197.289 148.904C198.355 148.904 199.881 148.461 201.784 147.574C203.56 146.755 205.035 145.834 206.269 144.845C204.677 147.847 203.713 149.723 203.377 150.473C202.95 151.36 203.123 151.838 203.943 151.838C204.312 151.838 204.772 151.701 205.323 151.429C205.833 151.156 206.202 150.849 206.429 150.507C206.52 150.371 206.761 149.825 207.234 148.87C208.311 146.516 210.021 143.582 212.386 140.034C213.637 138.158 215.425 135.6 217.809 132.393C218.296 132.154 218.728 131.813 219.124 131.404C219.261 131.199 219.575 130.79 219.98 130.244C220.639 129.254 221.863 127.788 223.547 125.877C224.611 124.649 225.212 123.933 225.371 123.694ZM208.159 140.41C207.135 141.331 206.33 142.047 205.765 142.525C204.705 143.378 203.548 144.128 202.378 144.776C200.889 145.595 199.737 145.97 198.917 145.97C198.179 145.97 198.083 145.561 198.652 144.708C199.266 143.787 200.463 142.729 202.325 141.535C205.407 139.557 207.319 138.533 207.975 138.533C207.975 138.533 208.075 138.568 208.239 138.568C207.89 139.523 207.849 140.137 208.159 140.41Z" fill="#F9FAFE"/>
<path d="M231.084 140.273C231.971 138.943 232.338 137.715 232.164 136.623C231.926 135.566 231.237 134.815 230.075 134.406C229.592 134.269 229.31 134.201 229.228 134.201C228.9 134.201 228.417 134.372 227.743 134.644C226.987 134.917 226.4 135.122 226.004 135.224C224.223 135.804 222.393 136.828 220.617 138.261C218.933 139.557 217.632 140.956 216.654 142.422C215.494 144.162 215.072 145.595 215.469 146.721C215.89 147.812 216.938 148.392 218.66 148.392C220.628 148.392 222.809 147.642 225.208 146.073C227.567 144.503 229.537 142.593 231.084 140.273ZM227.504 140.785C226.73 141.945 225.615 143.002 224.218 143.992C222.715 145.015 221.513 145.527 220.529 145.527C219.709 145.527 219.258 145.22 219.198 144.572C219.074 143.958 219.306 143.241 219.852 142.422C220.58 141.331 221.549 140.307 222.842 139.352C224.307 138.261 225.637 137.681 226.785 137.681C227.059 137.885 227.523 137.988 228.179 137.988C228.685 138.397 228.459 139.352 227.504 140.785Z" fill="#F9FAFE"/>
<path d="M252.202 137.988C252.543 137.476 252.529 137.067 252.265 136.725C251.977 136.418 251.558 136.248 251.007 136.214C246.662 137.749 242.045 140 237.179 142.934C238.316 141.228 239.681 139.489 241.296 137.681C242.047 136.862 242.752 136.111 243.412 135.429C243.776 134.883 243.889 134.406 243.775 133.962C243.615 133.587 243.218 133.382 242.603 133.382C242.111 133.382 241.643 133.655 241.16 134.133C238.416 136.896 236.168 139.591 234.394 142.252C231.688 146.311 231.166 148.324 232.888 148.324C233.298 148.324 233.913 148.017 234.687 147.471C235.206 147.062 235.747 146.618 236.307 146.209C238.975 144.299 242.695 142.286 247.53 140.137L244.004 144.503C242.999 145.766 242.485 146.414 242.462 146.448C242.098 146.994 241.985 147.471 242.099 147.915C242.236 148.324 242.592 148.529 243.207 148.529C243.781 148.529 244.336 148.188 244.827 147.574C248.69 142.764 251.156 139.557 252.202 137.988Z" fill="#F9FAFE"/>
<path d="M266.525 147.164C266.753 146.823 266.816 146.482 266.716 146.141C266.57 145.868 266.273 145.697 265.863 145.697C265.535 145.697 264.957 145.766 264.214 145.834C263.472 145.902 262.916 145.936 262.588 145.936C261.358 145.936 260.611 145.459 260.286 144.469C265.614 142.627 269.12 140.444 270.803 137.919C271.44 136.964 271.562 136.043 271.123 135.224C270.685 134.406 269.974 133.996 268.949 133.996C267.186 133.996 265.183 134.849 262.92 136.521C260.981 137.953 259.466 139.489 258.374 141.126C258.146 141.467 257.869 141.945 257.605 142.525H256.662C256.088 142.525 255.669 142.354 255.323 142.013C254.976 141.672 254.68 141.501 254.434 141.501C253.368 141.501 252.516 141.979 251.88 142.934C251.379 143.685 251.626 144.299 252.701 144.776C253.517 145.152 254.429 145.322 255.495 145.322H256.725C256.631 147.676 258.154 148.836 261.27 148.836C264.017 148.836 265.798 148.256 266.525 147.164ZM267.473 138.056C266.722 139.182 264.674 140.41 261.327 141.74L261.736 141.126C262.35 140.205 263.105 139.318 264.084 138.465C265.176 137.442 266.091 136.93 266.829 136.93C267.157 136.93 267.394 137.067 267.586 137.271C267.65 137.544 267.655 137.783 267.473 138.056Z" fill="#F9FAFE"/>
<rect x="217.918" y="0.960449" width="14" height="86.4174" transform="rotate(33.267 217.918 0.960449)" fill="#FAFAFA"/>
<path d="M168.689 88.7609L181.064 82.5278L169.479 74.927L168.689 88.7609Z" fill="#FAFAFA"/>
</svg>
