<svg width="312" height="194" viewBox="0 0 312 194" fill="none" xmlns="http://www.w3.org/2000/svg">
<rect width="154.951" height="196.488" rx="7" transform="matrix(1 0 -0.580443 0.814301 154.049 34)" fill="#73BDE7"/>
<rect width="114.795" height="145.567" rx="7" transform="matrix(1 0 -0.580443 0.814301 163.943 52)" fill="#5D94B3"/>
<path d="M31.8103 63.1135C31.9922 62.8406 32.0739 62.5336 32.0553 62.1924C31.9913 61.9195 31.777 61.749 31.4717 61.7148C30.6927 61.7148 29.472 61.8854 27.8961 62.1583C23.4142 62.9771 16.0537 64.2393 5.76912 66.0132C4.73067 66.2179 3.96127 66.6955 3.41545 67.5142C2.82413 68.4012 2.97948 68.8447 3.92248 68.8447C5.88119 68.6741 9.57056 68.0601 15.0543 66.9684C11.0372 72.2561 8.39874 75.9063 7.03418 77.9531C4.30505 82.0468 2.14929 85.5265 0.648908 88.392C0.185082 89.2108 0.463428 89.6543 1.48843 89.6543C2.63643 89.6543 3.66528 88.972 4.55225 87.6415L6.07601 85.3559C6.43989 84.8101 6.5078 84.4007 6.36175 84.1278C7.19394 82.695 8.17636 81.1599 9.24527 79.5565C11.656 75.9404 14.8358 71.5397 18.844 66.3885C21.5493 65.7744 23.3348 65.4333 24.2457 65.2968C24.4145 65.5356 24.8156 65.6721 25.3668 65.7062L29.7071 64.5463C30.6043 64.3075 31.3327 63.8299 31.8103 63.1135Z" fill="#F9FAFE"/>
<path d="M31.7532 88.0509C32.2215 87.1639 32.5761 86.4475 32.9035 85.8335C33.7264 84.2301 34.604 82.7291 35.5592 81.2963C35.6957 81.0916 36.0596 80.5458 36.7101 79.693C37.3607 78.8401 37.7611 78.3625 37.8293 78.2602C38.1932 77.7143 38.2884 77.2026 38.1968 76.725C38.0597 76.3157 37.7269 76.0769 37.1119 76.0769C36.3739 76.0769 34.2518 76.8615 30.8276 78.4307C27.5537 79.8976 25.1997 81.0916 23.6836 82.0127C26.227 78.8742 27.8968 76.8615 28.6931 75.9745L33.4937 70.6186C35.2228 68.64 36.5697 67.1731 37.4753 66.1838C38.3171 65.2286 38.8039 64.6828 38.9176 64.5122C39.236 64.0346 39.3494 63.557 39.2578 63.0794C39.2072 62.6018 38.9154 62.363 38.3824 62.363C37.7264 62.363 36.8888 62.943 35.8923 64.0687L26.2594 74.9511C23.429 78.0896 20.9632 81.2963 18.7799 84.5713C18.6435 84.776 18.3933 85.1512 18.0932 85.6629C17.7293 86.2087 17.5246 86.5158 17.4791 86.584C17.1607 87.0616 17.0473 87.5392 17.1617 87.9827C17.3398 88.392 17.7363 88.5967 18.3513 88.5967C18.6793 88.5967 19.2985 88.2215 20.2908 87.471C20.9599 86.9593 21.6108 86.4134 22.2617 85.8676C24.3966 84.2642 28.071 82.3197 33.2847 80.0341L30.7378 84.1619C28.7185 87.4368 28.5516 89.0402 30.2736 89.0402C30.7656 89.0402 31.2391 88.6991 31.7532 88.0509Z" fill="#F9FAFE"/>
<path d="M52.7875 87.1639C53.0149 86.8228 53.0783 86.4817 52.9778 86.1405C52.8317 85.8676 52.5354 85.697 52.1254 85.697C51.7974 85.697 51.2189 85.7653 50.4764 85.8335C49.734 85.9017 49.1782 85.9358 48.8502 85.9358C47.6202 85.9358 46.8726 85.4582 46.5481 84.4689C51.8763 82.6268 55.3818 80.4435 57.0647 77.919C57.7015 76.9638 57.8236 76.0428 57.3854 75.224C56.9472 74.4053 56.2362 73.9959 55.2112 73.9959C53.4482 73.9959 51.4446 74.8488 49.1822 76.5203C47.243 77.9531 45.7276 79.4883 44.6359 81.1257C44.4085 81.4669 44.1311 81.9445 43.8675 82.5244H42.9245C42.3505 82.5244 41.9312 82.3539 41.5846 82.0127C41.238 81.6716 40.9418 81.501 40.6958 81.501C39.6298 81.501 38.7784 81.9786 38.1416 82.9338C37.6412 83.6843 37.8879 84.2984 38.9635 84.776C39.7793 85.1512 40.6906 85.3218 41.7566 85.3218H42.9866C42.8933 87.6756 44.4161 88.8355 47.5321 88.8355C50.2791 88.8355 52.0597 88.2556 52.7875 87.1639ZM53.7348 78.0555C52.9843 79.1812 50.9355 80.4094 47.5886 81.7398L47.9979 81.1257C48.612 80.2047 49.3673 79.3177 50.3459 78.4649C51.4381 77.4414 52.3533 76.9297 53.0913 76.9297C53.4193 76.9297 53.6563 77.0662 53.8479 77.2709C53.9119 77.5438 53.9167 77.7826 53.7348 78.0555Z" fill="#F9FAFE"/>
<path d="M104.682 65.1945C105.342 64.2052 104.658 63.6935 102.608 63.6935C101.993 63.6935 100.143 63.7617 97.0595 63.8981C93.9938 64.0687 92.4313 64.1369 92.3493 64.1369L91.684 63.9664C91.1465 64.0346 90.6866 64.1711 90.3041 64.3757C89.1699 64.4781 88.3636 64.5804 87.8854 64.6828C86.8425 64.9557 86.1368 65.3992 85.7047 66.0473C85.1361 66.9002 85.4283 67.446 86.6038 67.6507C84.1918 70.0387 82.6082 71.6762 81.8983 72.4949C79.2045 75.4287 76.5247 78.7719 73.8225 82.4562C73.021 82.7973 72.5294 83.1044 72.3247 83.4114C70.4825 86.1746 69.5689 88.2215 69.6022 89.586C69.6118 90.0636 69.8809 90.3365 70.4549 90.3365C70.8239 90.3365 71.2839 90.2001 71.8758 89.9272C72.3858 89.6543 72.7544 89.3472 72.9591 89.0402C73.0501 88.9038 73.3547 88.3238 73.9777 87.2663C74.496 86.2429 75.0236 85.39 75.433 84.776C76.7293 82.8314 78.2396 80.7505 80.0231 78.5672C83.8179 78.5331 88.1588 77.9873 92.9638 76.9297C94.5032 76.5886 95.5868 76.0086 96.1327 75.1899C96.724 74.3029 96.4866 73.8595 95.4206 73.8595C94.5462 74.0641 93.9632 74.2006 93.6307 74.2688C90.9846 74.917 87.2632 75.3946 82.4028 75.7357C85.1101 72.5972 87.8632 69.6975 90.6849 67.0025C95.0079 66.7296 98.6066 66.559 101.395 66.559C101.477 66.559 101.618 66.5932 101.823 66.5932C101.941 66.6614 102.105 66.6614 102.228 66.6614C102.556 66.6614 102.998 66.4908 103.553 66.1497C104.109 65.8085 104.5 65.4674 104.682 65.1945Z" fill="#F9FAFE"/>
<path d="M112.771 85.5606C113.407 84.6054 113.174 84.0937 112.026 84.0937C111.862 84.0937 111.571 84.1619 111.238 84.2301C110.865 84.2984 110.573 84.3666 110.491 84.3666C108.692 84.6054 106.902 84.7077 105.016 84.7077C102.884 84.7077 101.996 84.503 102.291 84.0596C102.805 83.4114 104.294 82.2856 106.757 80.6823C108.405 79.6247 110.053 78.5672 111.742 77.5097C115.343 75.1217 117.66 73.5524 118.716 72.7678C120.742 71.2668 122.207 69.8681 123.026 68.64C124.754 66.0473 124.02 64.751 120.904 64.751C118.854 64.751 115.542 65.5356 110.993 67.0708C110.146 67.1731 109.394 67.3778 108.716 67.7189C107.596 68.2306 106.886 68.7423 106.567 69.2199C105.817 70.3457 105.986 70.8915 107.093 70.8915C107.462 70.8915 108.509 70.5504 110.194 69.8681C114.024 68.3671 116.925 67.5825 118.811 67.5825C119.795 67.5825 120.032 68.0259 119.464 68.8788C118.508 70.3116 115.358 72.6996 110.118 76.0086C106.44 78.3284 104.364 79.6588 103.809 80C101.104 81.8421 99.3658 83.3432 98.638 84.4348C97.228 86.5499 98.4317 87.5733 102.245 87.5733C105.033 87.5733 107.647 87.4027 110.216 86.9934C111.419 86.7887 112.27 86.3111 112.771 85.5606Z" fill="#F9FAFE"/>
<path d="M133.746 87.1639C133.974 86.8228 134.037 86.4817 133.937 86.1405C133.791 85.8676 133.494 85.697 133.084 85.697C132.756 85.697 132.178 85.7653 131.435 85.8335C130.693 85.9017 130.137 85.9358 129.809 85.9358C128.579 85.9358 127.832 85.4582 127.507 84.4689C132.835 82.6268 136.341 80.4435 138.024 77.919C138.661 76.9638 138.783 76.0428 138.344 75.224C137.906 74.4053 137.195 73.9959 136.17 73.9959C134.407 73.9959 132.404 74.8488 130.141 76.5203C128.202 77.9531 126.687 79.4883 125.595 81.1257C125.367 81.4669 125.09 81.9445 124.826 82.5244H123.883C123.309 82.5244 122.89 82.3539 122.544 82.0127C122.197 81.6716 121.901 81.501 121.655 81.501C120.589 81.501 119.737 81.9786 119.101 82.9338C118.6 83.6843 118.847 84.2984 119.922 84.776C120.738 85.1512 121.65 85.3218 122.716 85.3218H123.946C123.852 87.6756 125.375 88.8355 128.491 88.8355C131.238 88.8355 133.019 88.2556 133.746 87.1639ZM134.694 78.0555C133.943 79.1812 131.895 80.4094 128.548 81.7398L128.957 81.1257C129.571 80.2047 130.326 79.3177 131.305 78.4649C132.397 77.4414 133.312 76.9297 134.05 76.9297C134.378 76.9297 134.615 77.0662 134.807 77.2709C134.871 77.5438 134.876 77.7826 134.694 78.0555Z" fill="#F9FAFE"/>
<path d="M189.429 129.071C190.066 128.115 189.892 127.638 188.99 127.638C188.17 127.638 187.232 128.184 186.263 129.207C183.118 132.448 180.165 135.279 177.402 137.701C173.337 141.215 170.315 143.842 168.272 145.616C168.091 142.443 168.006 139.987 167.977 138.247C167.971 137.087 167.825 136.507 167.497 136.507C166.841 136.507 165.37 137.36 163.003 139.066C158.05 142.682 155.105 144.763 154.04 145.377C153.711 144.763 154.006 143.399 154.947 141.249C155.778 139.202 156.851 137.224 158.079 135.382C158.466 134.802 159.485 133.335 161.177 130.981C162.806 128.661 163.847 127.16 164.302 126.478C165.462 124.738 166.158 123.51 166.449 122.828C166.799 121.873 166.566 121.361 165.746 121.361C165.172 121.361 164.561 121.6 163.956 122.077C162.167 123.408 160.665 125.045 159.346 127.024C158.892 127.706 159.047 128.15 159.767 128.422C157.515 131.493 156.046 133.574 155.364 134.597C151.543 140.328 149.734 145.07 150.003 148.789C149.967 149.334 150.299 149.573 150.914 149.573C151.488 149.573 152.527 149.061 154.052 148.004C158.458 144.9 161.854 142.512 164.221 140.806L164.666 148.379C164.676 149.164 165.082 149.539 165.902 149.539C166.804 149.539 167.692 149.13 168.693 148.243C169.435 147.56 171.784 145.514 175.675 142.136C179.198 139.066 181.92 136.644 183.841 134.87C186.853 132.073 188.701 130.162 189.429 129.071Z" fill="#F9FAFE"/>
<path d="M195.657 149.164C195.885 148.823 195.948 148.482 195.848 148.14C195.702 147.867 195.405 147.697 194.995 147.697C194.667 147.697 194.089 147.765 193.346 147.833C192.604 147.902 192.048 147.936 191.72 147.936C190.49 147.936 189.742 147.458 189.418 146.469C194.746 144.627 198.252 142.443 199.935 139.919C200.571 138.964 200.693 138.043 200.255 137.224C199.817 136.405 199.106 135.996 198.081 135.996C196.318 135.996 194.314 136.849 192.052 138.52C190.113 139.953 188.597 141.488 187.506 143.126C187.278 143.467 187.001 143.944 186.737 144.524H185.794C185.22 144.524 184.801 144.354 184.454 144.013C184.108 143.671 183.812 143.501 183.566 143.501C182.5 143.501 181.648 143.978 181.011 144.934C180.511 145.684 180.758 146.298 181.833 146.776C182.649 147.151 183.56 147.322 184.626 147.322H185.856C185.763 149.676 187.286 150.835 190.402 150.835C193.149 150.835 194.93 150.255 195.657 149.164ZM196.605 140.055C195.854 141.181 193.805 142.409 190.458 143.74L190.868 143.126C191.482 142.205 192.237 141.318 193.216 140.465C194.308 139.441 195.223 138.93 195.961 138.93C196.289 138.93 196.526 139.066 196.718 139.271C196.782 139.544 196.787 139.782 196.605 140.055Z" fill="#F9FAFE"/>
<path d="M221.68 126.717C221.953 126.307 221.902 125.83 221.656 125.216C221.363 124.67 220.994 124.363 220.502 124.363C219.969 124.363 219.045 125.011 217.775 126.239C213.356 130.469 209.666 134.836 206.664 139.339C205.891 140.499 204.904 142.102 203.703 144.149C203.143 144.558 202.52 145.309 201.815 146.366C201.042 147.526 200.624 148.584 200.579 149.573C200.494 150.562 200.85 151.074 201.67 151.074C201.875 151.074 202.189 150.972 202.612 150.767C202.972 150.597 203.25 150.426 203.363 150.255C203.432 150.153 203.527 149.948 203.668 149.676C203.791 149.368 203.927 149.164 204.018 149.027C206.383 144.865 208.134 141.932 209.225 140.294C211.841 136.371 215.071 132.448 218.916 128.525L219.431 128.184C220.478 127.843 221.248 127.365 221.68 126.717Z" fill="#F9FAFE"/>
<path d="M232.611 126.717C232.883 126.307 232.833 125.83 232.586 125.216C232.294 124.67 231.925 124.363 231.433 124.363C230.9 124.363 229.976 125.011 228.706 126.239C224.287 130.469 220.597 134.836 217.595 139.339C216.821 140.499 215.835 142.102 214.634 144.149C214.074 144.558 213.451 145.309 212.746 146.366C211.972 147.526 211.554 148.584 211.51 149.573C211.424 150.562 211.78 151.074 212.6 151.074C212.805 151.074 213.119 150.972 213.543 150.767C213.903 150.597 214.18 150.426 214.294 150.255C214.362 150.153 214.458 149.948 214.599 149.676C214.721 149.368 214.858 149.164 214.949 149.027C217.313 144.865 219.064 141.932 220.156 140.294C222.771 136.371 226.002 132.448 229.847 128.525L230.362 128.184C231.409 127.843 232.178 127.365 232.611 126.717Z" fill="#F9FAFE"/>
<path d="M265.371 125.693C265.962 124.806 265.766 124.363 264.782 124.363C263.921 124.363 263.161 124.704 262.542 125.386C259.638 128.388 256.008 132.789 251.695 138.52C251.243 137.906 250.733 137.565 250.118 137.565C248.396 137.565 245.841 138.691 242.436 140.908C238.967 143.16 236.664 145.138 235.549 146.81C234.708 148.072 234.417 149.061 234.719 149.778C234.997 150.528 235.854 150.904 237.289 150.904C238.355 150.904 239.881 150.46 241.784 149.573C243.56 148.754 245.035 147.833 246.269 146.844C244.677 149.846 243.713 151.722 243.377 152.473C242.95 153.36 243.123 153.837 243.943 153.837C244.312 153.837 244.772 153.701 245.323 153.428C245.833 153.155 246.202 152.848 246.429 152.507C246.52 152.371 246.761 151.825 247.234 150.87C248.311 148.516 250.021 145.582 252.386 142.034C253.637 140.158 255.425 137.599 257.809 134.392C258.296 134.154 258.728 133.812 259.124 133.403C259.261 133.198 259.575 132.789 259.98 132.243C260.639 131.254 261.863 129.787 263.547 127.877C264.611 126.649 265.212 125.932 265.371 125.693ZM248.159 142.409C247.135 143.33 246.33 144.047 245.765 144.524C244.705 145.377 243.548 146.128 242.378 146.776C240.889 147.595 239.737 147.97 238.917 147.97C238.179 147.97 238.083 147.56 238.652 146.708C239.266 145.787 240.463 144.729 242.325 143.535C245.407 141.556 247.319 140.533 247.975 140.533C247.975 140.533 248.075 140.567 248.239 140.567C247.89 141.522 247.849 142.136 248.159 142.409Z" fill="#F9FAFE"/>
<path d="M271.084 142.273C271.971 140.942 272.338 139.714 272.164 138.623C271.926 137.565 271.237 136.815 270.075 136.405C269.592 136.269 269.31 136.2 269.228 136.2C268.9 136.2 268.417 136.371 267.743 136.644C266.987 136.917 266.4 137.122 266.004 137.224C264.223 137.804 262.393 138.827 260.617 140.26C258.933 141.556 257.632 142.955 256.654 144.422C255.494 146.162 255.072 147.595 255.469 148.72C255.89 149.812 256.938 150.392 258.66 150.392C260.628 150.392 262.809 149.641 265.208 148.072C267.567 146.503 269.537 144.593 271.084 142.273ZM267.504 142.784C266.73 143.944 265.615 145.002 264.218 145.991C262.715 147.015 261.513 147.526 260.529 147.526C259.709 147.526 259.258 147.219 259.198 146.571C259.074 145.957 259.306 145.241 259.852 144.422C260.58 143.33 261.549 142.307 262.842 141.352C264.307 140.26 265.637 139.68 266.785 139.68C267.059 139.885 267.523 139.987 268.179 139.987C268.685 140.396 268.459 141.352 267.504 142.784Z" fill="#F9FAFE"/>
<path d="M292.202 139.987C292.543 139.475 292.529 139.066 292.265 138.725C291.977 138.418 291.558 138.247 291.007 138.213C286.662 139.748 282.045 142 277.179 144.934C278.316 143.228 279.681 141.488 281.296 139.68C282.047 138.861 282.752 138.111 283.412 137.429C283.776 136.883 283.889 136.405 283.775 135.962C283.615 135.586 283.218 135.382 282.603 135.382C282.111 135.382 281.643 135.655 281.16 136.132C278.416 138.895 276.168 141.59 274.394 144.251C271.688 148.311 271.166 150.324 272.888 150.324C273.298 150.324 273.913 150.017 274.687 149.471C275.206 149.061 275.747 148.618 276.307 148.209C278.975 146.298 282.695 144.285 287.53 142.136L284.004 146.503C282.999 147.765 282.485 148.413 282.462 148.447C282.098 148.993 281.985 149.471 282.099 149.914C282.236 150.324 282.592 150.528 283.207 150.528C283.781 150.528 284.336 150.187 284.827 149.573C288.69 144.763 291.156 141.556 292.202 139.987Z" fill="#F9FAFE"/>
<path d="M306.525 149.164C306.753 148.823 306.816 148.482 306.716 148.14C306.57 147.867 306.273 147.697 305.863 147.697C305.535 147.697 304.957 147.765 304.214 147.833C303.472 147.902 302.916 147.936 302.588 147.936C301.358 147.936 300.611 147.458 300.286 146.469C305.614 144.627 309.12 142.443 310.803 139.919C311.44 138.964 311.562 138.043 311.123 137.224C310.685 136.405 309.974 135.996 308.949 135.996C307.186 135.996 305.183 136.849 302.92 138.52C300.981 139.953 299.466 141.488 298.374 143.126C298.146 143.467 297.869 143.944 297.605 144.524H296.662C296.088 144.524 295.669 144.354 295.323 144.013C294.976 143.671 294.68 143.501 294.434 143.501C293.368 143.501 292.516 143.978 291.88 144.934C291.379 145.684 291.626 146.298 292.701 146.776C293.517 147.151 294.429 147.322 295.495 147.322H296.725C296.631 149.676 298.154 150.835 301.27 150.835C304.017 150.835 305.798 150.255 306.525 149.164ZM307.473 140.055C306.722 141.181 304.674 142.409 301.327 143.74L301.736 143.126C302.35 142.205 303.105 141.318 304.084 140.465C305.176 139.441 306.091 138.93 306.829 138.93C307.157 138.93 307.394 139.066 307.586 139.271C307.65 139.544 307.655 139.782 307.473 140.055Z" fill="#F9FAFE"/>
<rect x="232.174" y="0.65918" width="14" height="86.4174" transform="rotate(26.27 232.174 0.65918)" fill="#FAFAFA"/>
<path d="M194.006 93.8025L205.53 86.1083L193.104 79.9755L194.006 93.8025Z" fill="#FAFAFA"/>
</svg>
