<svg width="1070" height="754" viewBox="0 0 1070 754" fill="none" xmlns="http://www.w3.org/2000/svg">
<g filter="url(#filter0_d_51_2569)">
<rect x="30" y="26" width="1010" height="737" fill="white"/>
</g>
<g opacity="0.3">
<mask id="path-2-outside-1_51_2569" maskUnits="userSpaceOnUse" x="64" y="37" width="942" height="715" fill="black">
<rect fill="white" x="64" y="37" width="942" height="715"/>
<path d="M121.744 169.208V207.48C121.744 223.704 127.152 228.072 149.2 228.072C153.568 228.072 184.976 228.072 189.76 228.072C207.44 228.072 212.224 222.04 214.304 197.08C209.936 196.04 203.488 193.96 200.16 191.256C199.328 211.224 197.664 213.928 188.512 213.928C181.648 213.928 155.44 213.928 150.448 213.928C139.008 213.928 137.136 212.888 137.136 207.272V169.208H121.744ZM138.8 161.096C152.32 168.168 168.128 179.816 175.408 188.552L186.64 178.36C179.152 169.624 163.136 158.6 149.408 151.944L138.8 161.096ZM206.608 171.704C222.208 186.056 237.6 206.232 243.216 220.376L257.568 213.096C251.536 198.328 235.52 178.776 219.92 165.048L206.608 171.704ZM94.496 168.168C89.92 185.64 80.56 203.944 66 214.76L78.896 223.288C94.496 211.224 102.816 191.464 108.432 172.744L94.496 168.168ZM111.552 63.336V77.272H251.12V63.336H111.552ZM153.776 94.952V107.848H240.512V94.952H153.776ZM153.984 126.568V139.88H245.504V126.568H153.984ZM146.912 67.912V156.52H162.512V67.912H146.912ZM118 39C108.016 68.328 89.92 95.16 68.08 112.008C72.032 114.504 78.688 120.328 81.392 123.448C103.232 104.52 122.576 75.608 134.224 42.952L118 39ZM350.752 212.68L351.792 225.992C385.904 225.368 437.696 223.496 486.784 221.832L487.408 209.768C437.072 211.224 384.032 212.264 350.752 212.68ZM449.344 158.184C431.872 176.072 402.544 200.2 380.08 214.344L390.064 221.208C412.528 207.48 441.648 184.808 462.656 165.672L449.344 158.184ZM410.032 144.872C402.544 154.44 389.232 167.752 379.04 175.864L388.816 181.896C399.216 174.408 412.112 162.552 422.72 151.944L410.032 144.872ZM363.024 173.576C377.792 182.104 396.512 195.208 405.456 203.528L416.272 193.336C406.704 184.808 387.776 172.536 373.216 164.424L363.024 173.576ZM448.928 190.216C464.32 202.488 482 219.96 490.528 231.4L503.632 224.536C494.688 212.68 476.384 195.624 461.2 183.976L448.928 190.216ZM353.872 87.464V99.112H418.768V87.464H353.872ZM426.048 87.464V99.112H498.848V87.464H426.048ZM380.704 72.488V148.616H392.768V72.488H380.704ZM404.208 105.976V138.216H413.984V105.976H404.208ZM452.464 72.488V149.24H464.736V72.488H452.464ZM360.112 105.976V113.88C360.112 123.24 358.864 135.928 349.92 144.04C352.624 145.496 356.784 148.408 358.448 150.696C368.432 140.088 369.888 126.36 369.888 114.296V105.976H360.112ZM431.664 105.56V113.048C431.664 121.576 430.416 133.432 421.888 140.712C424.592 142.168 428.752 145.288 430.624 147.576C439.984 137.8 441.44 124.696 441.44 113.672V105.56H431.664ZM476.176 105.56V132.392C476.176 140.712 476.8 143.416 478.88 145.496C480.752 147.368 484.08 147.992 487.2 147.992C488.656 147.992 492.608 147.992 494.272 147.992C496.144 147.992 498.848 147.784 500.304 146.952C502.176 146.12 503.84 144.664 504.672 142.584C505.712 140.504 506.128 134.264 506.336 128.856C503.84 128.232 500.512 126.568 498.432 125.112C498.224 130.104 498.016 134.264 497.6 135.928C497.184 137.592 496.768 138.632 496.144 139.048C495.728 139.464 494.272 139.464 493.232 139.464C491.776 139.464 490.112 139.464 489.28 139.464C488.24 139.464 487.408 139.256 486.992 138.84C486.576 138.216 486.576 136.552 486.576 133.848V105.56H476.176ZM407.952 39.624V63.96H423.968V39.624H407.952ZM337.44 57.096V70.616H503.424V57.096H337.44ZM328.704 57.096V121.368C328.704 151.32 327.456 192.92 312.688 222.456C316.016 224.12 322.256 228.696 324.752 231.4C340.768 199.992 343.264 153.192 343.264 121.368V57.096H328.704ZM605.76 131.56V144.456H708.928V131.56H605.76ZM601.808 167.128V180.44H713.296V167.128H601.808ZM671.072 135.72V227.032H685.216V135.72H671.072ZM628.432 136.344V174.2C628.432 185.64 624.064 207.688 603.056 220.584C606.592 222.664 611.376 227.032 613.456 229.944C636.96 214.136 641.952 186.888 641.952 174.2V136.344H628.432ZM579.968 77.272V88.504H638.416V77.272H579.968ZM675.856 77.272V88.504H734.72V77.272H675.856ZM728.688 48.36V210.6C728.688 213.72 727.648 214.968 724.32 214.968C720.992 215.176 709.76 215.176 698.32 214.76C700.608 219.128 702.688 226.408 703.312 230.568C719.12 230.568 729.52 230.36 735.76 227.656C742 224.952 744.08 219.96 744.08 210.6V48.36H728.688ZM581.216 48.36V60.424H633.216V106.6H581.216V118.456H647.984V48.36H581.216ZM736.176 48.36H666.288V118.664H736.176V106.808H681.264V60.424H736.176V48.36ZM571.856 48.36V230.984H587.248V48.36H571.856ZM910.896 207.48V221.624H983.488V207.48H910.896ZM902.784 146.536V230.984H917.76V160.888H976.208V230.152H991.6V146.536H902.784ZM888.64 111.592L890.512 126.984C916.304 125.32 953.536 122.408 988.688 119.704L988.896 105.768C951.872 108.264 913.184 110.344 888.64 111.592ZM957.488 78.104C971.216 95.784 985.152 119.496 990.144 135.096L1003.87 127.608C998.256 112.216 983.904 88.92 969.968 71.656L957.488 78.104ZM929.2 39.416C923.376 62.712 912.144 95.992 902.784 116.168L916.096 119.912C925.872 100.152 937.728 68.328 946.256 42.952L929.2 39.416ZM810.016 82.472V97.24H878.656V82.472H810.016ZM841.632 39.416C834.352 78.936 821.456 134.888 812.096 166.504L824.992 173.576C834.768 138.84 848.08 82.68 856.608 41.08L841.632 39.416ZM820.416 160.264C843.712 173.784 870.752 194.792 883.024 210.392L892.592 197.704C880.112 182.312 852.448 162.344 829.152 149.24L820.416 160.264ZM872.624 82.472V85.8C867.632 156.312 845.792 200.616 811.264 218.92C814.592 222.04 818.752 227.656 821.04 231.4C859.312 208.52 881.776 164.424 887.392 83.928L878.032 82.056L875.328 82.472H872.624ZM106.768 335.192H217.216V345.384H106.768V335.192ZM106.768 315.848H217.216V325.832H106.768V315.848ZM91.792 306.28V355.16H232.608V306.28H91.792ZM154.192 372.632V490.776H169.584V372.632H154.192ZM109.056 432.744H215.344V443.144H109.056V432.744ZM109.056 413.816H215.344V424.008H109.056V413.816ZM94.496 404.872V452.296H230.528V404.872H94.496ZM70.16 461.864V473.512H255.28V461.864H70.16ZM96.784 384.904V395.304H227.824V384.904H96.784ZM74.32 363.896V396.552H88.88V375.336H235.104V396.552H250.08V363.896H74.32ZM354.288 335.192H464.736V345.384H354.288V335.192ZM354.288 315.848H464.736V325.832H354.288V315.848ZM339.312 306.28V355.16H480.128V306.28H339.312ZM401.712 372.632V490.776H417.104V372.632H401.712ZM356.576 432.744H462.864V443.144H356.576V432.744ZM356.576 413.816H462.864V424.008H356.576V413.816ZM342.016 404.872V452.296H478.048V404.872H342.016ZM317.68 461.864V473.512H502.8V461.864H317.68ZM344.304 384.904V395.304H475.344V384.904H344.304ZM321.84 363.896V396.552H336.4V375.336H482.624V396.552H497.6V363.896H321.84ZM601.808 335.192H712.256V345.384H601.808V335.192ZM601.808 315.848H712.256V325.832H601.808V315.848ZM586.832 306.28V355.16H727.648V306.28H586.832ZM649.232 372.632V490.776H664.624V372.632H649.232ZM604.096 432.744H710.384V443.144H604.096V432.744ZM604.096 413.816H710.384V424.008H604.096V413.816ZM589.536 404.872V452.296H725.568V404.872H589.536ZM565.2 461.864V473.512H750.32V461.864H565.2ZM591.824 384.904V395.304H722.864V384.904H591.824ZM569.36 363.896V396.552H583.92V375.336H730.144V396.552H745.12V363.896H569.36ZM849.328 335.192H959.776V345.384H849.328V335.192ZM849.328 315.848H959.776V325.832H849.328V315.848ZM834.352 306.28V355.16H975.168V306.28H834.352ZM896.752 372.632V490.776H912.144V372.632H896.752ZM851.616 432.744H957.904V443.144H851.616V432.744ZM851.616 413.816H957.904V424.008H851.616V413.816ZM837.056 404.872V452.296H973.088V404.872H837.056ZM812.72 461.864V473.512H997.84V461.864H812.72ZM839.344 384.904V395.304H970.384V384.904H839.344ZM816.88 363.896V396.552H831.44V375.336H977.664V396.552H992.64V363.896H816.88ZM106.768 595.192H217.216V605.384H106.768V595.192ZM106.768 575.848H217.216V585.832H106.768V575.848ZM91.792 566.28V615.16H232.608V566.28H91.792ZM154.192 632.632V750.776H169.584V632.632H154.192ZM109.056 692.744H215.344V703.144H109.056V692.744ZM109.056 673.816H215.344V684.008H109.056V673.816ZM94.496 664.872V712.296H230.528V664.872H94.496ZM70.16 721.864V733.512H255.28V721.864H70.16ZM96.784 644.904V655.304H227.824V644.904H96.784ZM74.32 623.896V656.552H88.88V635.336H235.104V656.552H250.08V623.896H74.32ZM354.288 595.192H464.736V605.384H354.288V595.192ZM354.288 575.848H464.736V585.832H354.288V575.848ZM339.312 566.28V615.16H480.128V566.28H339.312ZM401.712 632.632V750.776H417.104V632.632H401.712ZM356.576 692.744H462.864V703.144H356.576V692.744ZM356.576 673.816H462.864V684.008H356.576V673.816ZM342.016 664.872V712.296H478.048V664.872H342.016ZM317.68 721.864V733.512H502.8V721.864H317.68ZM344.304 644.904V655.304H475.344V644.904H344.304ZM321.84 623.896V656.552H336.4V635.336H482.624V656.552H497.6V623.896H321.84ZM601.808 595.192H712.256V605.384H601.808V595.192ZM601.808 575.848H712.256V585.832H601.808V575.848ZM586.832 566.28V615.16H727.648V566.28H586.832ZM649.232 632.632V750.776H664.624V632.632H649.232ZM604.096 692.744H710.384V703.144H604.096V692.744ZM604.096 673.816H710.384V684.008H604.096V673.816ZM589.536 664.872V712.296H725.568V664.872H589.536ZM565.2 721.864V733.512H750.32V721.864H565.2ZM591.824 644.904V655.304H722.864V644.904H591.824ZM569.36 623.896V656.552H583.92V635.336H730.144V656.552H745.12V623.896H569.36ZM849.328 595.192H959.776V605.384H849.328V595.192ZM849.328 575.848H959.776V585.832H849.328V575.848ZM834.352 566.28V615.16H975.168V566.28H834.352ZM896.752 632.632V750.776H912.144V632.632H896.752ZM851.616 692.744H957.904V703.144H851.616V692.744ZM851.616 673.816H957.904V684.008H851.616V673.816ZM837.056 664.872V712.296H973.088V664.872H837.056ZM812.72 721.864V733.512H997.84V721.864H812.72ZM839.344 644.904V655.304H970.384V644.904H839.344ZM816.88 623.896V656.552H831.44V635.336H977.664V656.552H992.64V623.896H816.88Z"/>
</mask>
<path d="M121.744 169.208V207.48C121.744 223.704 127.152 228.072 149.2 228.072C153.568 228.072 184.976 228.072 189.76 228.072C207.44 228.072 212.224 222.04 214.304 197.08C209.936 196.04 203.488 193.96 200.16 191.256C199.328 211.224 197.664 213.928 188.512 213.928C181.648 213.928 155.44 213.928 150.448 213.928C139.008 213.928 137.136 212.888 137.136 207.272V169.208H121.744ZM138.8 161.096C152.32 168.168 168.128 179.816 175.408 188.552L186.64 178.36C179.152 169.624 163.136 158.6 149.408 151.944L138.8 161.096ZM206.608 171.704C222.208 186.056 237.6 206.232 243.216 220.376L257.568 213.096C251.536 198.328 235.52 178.776 219.92 165.048L206.608 171.704ZM94.496 168.168C89.92 185.64 80.56 203.944 66 214.76L78.896 223.288C94.496 211.224 102.816 191.464 108.432 172.744L94.496 168.168ZM111.552 63.336V77.272H251.12V63.336H111.552ZM153.776 94.952V107.848H240.512V94.952H153.776ZM153.984 126.568V139.88H245.504V126.568H153.984ZM146.912 67.912V156.52H162.512V67.912H146.912ZM118 39C108.016 68.328 89.92 95.16 68.08 112.008C72.032 114.504 78.688 120.328 81.392 123.448C103.232 104.52 122.576 75.608 134.224 42.952L118 39ZM350.752 212.68L351.792 225.992C385.904 225.368 437.696 223.496 486.784 221.832L487.408 209.768C437.072 211.224 384.032 212.264 350.752 212.68ZM449.344 158.184C431.872 176.072 402.544 200.2 380.08 214.344L390.064 221.208C412.528 207.48 441.648 184.808 462.656 165.672L449.344 158.184ZM410.032 144.872C402.544 154.44 389.232 167.752 379.04 175.864L388.816 181.896C399.216 174.408 412.112 162.552 422.72 151.944L410.032 144.872ZM363.024 173.576C377.792 182.104 396.512 195.208 405.456 203.528L416.272 193.336C406.704 184.808 387.776 172.536 373.216 164.424L363.024 173.576ZM448.928 190.216C464.32 202.488 482 219.96 490.528 231.4L503.632 224.536C494.688 212.68 476.384 195.624 461.2 183.976L448.928 190.216ZM353.872 87.464V99.112H418.768V87.464H353.872ZM426.048 87.464V99.112H498.848V87.464H426.048ZM380.704 72.488V148.616H392.768V72.488H380.704ZM404.208 105.976V138.216H413.984V105.976H404.208ZM452.464 72.488V149.24H464.736V72.488H452.464ZM360.112 105.976V113.88C360.112 123.24 358.864 135.928 349.92 144.04C352.624 145.496 356.784 148.408 358.448 150.696C368.432 140.088 369.888 126.36 369.888 114.296V105.976H360.112ZM431.664 105.56V113.048C431.664 121.576 430.416 133.432 421.888 140.712C424.592 142.168 428.752 145.288 430.624 147.576C439.984 137.8 441.44 124.696 441.44 113.672V105.56H431.664ZM476.176 105.56V132.392C476.176 140.712 476.8 143.416 478.88 145.496C480.752 147.368 484.08 147.992 487.2 147.992C488.656 147.992 492.608 147.992 494.272 147.992C496.144 147.992 498.848 147.784 500.304 146.952C502.176 146.12 503.84 144.664 504.672 142.584C505.712 140.504 506.128 134.264 506.336 128.856C503.84 128.232 500.512 126.568 498.432 125.112C498.224 130.104 498.016 134.264 497.6 135.928C497.184 137.592 496.768 138.632 496.144 139.048C495.728 139.464 494.272 139.464 493.232 139.464C491.776 139.464 490.112 139.464 489.28 139.464C488.24 139.464 487.408 139.256 486.992 138.84C486.576 138.216 486.576 136.552 486.576 133.848V105.56H476.176ZM407.952 39.624V63.96H423.968V39.624H407.952ZM337.44 57.096V70.616H503.424V57.096H337.44ZM328.704 57.096V121.368C328.704 151.32 327.456 192.92 312.688 222.456C316.016 224.12 322.256 228.696 324.752 231.4C340.768 199.992 343.264 153.192 343.264 121.368V57.096H328.704ZM605.76 131.56V144.456H708.928V131.56H605.76ZM601.808 167.128V180.44H713.296V167.128H601.808ZM671.072 135.72V227.032H685.216V135.72H671.072ZM628.432 136.344V174.2C628.432 185.64 624.064 207.688 603.056 220.584C606.592 222.664 611.376 227.032 613.456 229.944C636.96 214.136 641.952 186.888 641.952 174.2V136.344H628.432ZM579.968 77.272V88.504H638.416V77.272H579.968ZM675.856 77.272V88.504H734.72V77.272H675.856ZM728.688 48.36V210.6C728.688 213.72 727.648 214.968 724.32 214.968C720.992 215.176 709.76 215.176 698.32 214.76C700.608 219.128 702.688 226.408 703.312 230.568C719.12 230.568 729.52 230.36 735.76 227.656C742 224.952 744.08 219.96 744.08 210.6V48.36H728.688ZM581.216 48.36V60.424H633.216V106.6H581.216V118.456H647.984V48.36H581.216ZM736.176 48.36H666.288V118.664H736.176V106.808H681.264V60.424H736.176V48.36ZM571.856 48.36V230.984H587.248V48.36H571.856ZM910.896 207.48V221.624H983.488V207.48H910.896ZM902.784 146.536V230.984H917.76V160.888H976.208V230.152H991.6V146.536H902.784ZM888.64 111.592L890.512 126.984C916.304 125.32 953.536 122.408 988.688 119.704L988.896 105.768C951.872 108.264 913.184 110.344 888.64 111.592ZM957.488 78.104C971.216 95.784 985.152 119.496 990.144 135.096L1003.87 127.608C998.256 112.216 983.904 88.92 969.968 71.656L957.488 78.104ZM929.2 39.416C923.376 62.712 912.144 95.992 902.784 116.168L916.096 119.912C925.872 100.152 937.728 68.328 946.256 42.952L929.2 39.416ZM810.016 82.472V97.24H878.656V82.472H810.016ZM841.632 39.416C834.352 78.936 821.456 134.888 812.096 166.504L824.992 173.576C834.768 138.84 848.08 82.68 856.608 41.08L841.632 39.416ZM820.416 160.264C843.712 173.784 870.752 194.792 883.024 210.392L892.592 197.704C880.112 182.312 852.448 162.344 829.152 149.24L820.416 160.264ZM872.624 82.472V85.8C867.632 156.312 845.792 200.616 811.264 218.92C814.592 222.04 818.752 227.656 821.04 231.4C859.312 208.52 881.776 164.424 887.392 83.928L878.032 82.056L875.328 82.472H872.624ZM106.768 335.192H217.216V345.384H106.768V335.192ZM106.768 315.848H217.216V325.832H106.768V315.848ZM91.792 306.28V355.16H232.608V306.28H91.792ZM154.192 372.632V490.776H169.584V372.632H154.192ZM109.056 432.744H215.344V443.144H109.056V432.744ZM109.056 413.816H215.344V424.008H109.056V413.816ZM94.496 404.872V452.296H230.528V404.872H94.496ZM70.16 461.864V473.512H255.28V461.864H70.16ZM96.784 384.904V395.304H227.824V384.904H96.784ZM74.32 363.896V396.552H88.88V375.336H235.104V396.552H250.08V363.896H74.32ZM354.288 335.192H464.736V345.384H354.288V335.192ZM354.288 315.848H464.736V325.832H354.288V315.848ZM339.312 306.28V355.16H480.128V306.28H339.312ZM401.712 372.632V490.776H417.104V372.632H401.712ZM356.576 432.744H462.864V443.144H356.576V432.744ZM356.576 413.816H462.864V424.008H356.576V413.816ZM342.016 404.872V452.296H478.048V404.872H342.016ZM317.68 461.864V473.512H502.8V461.864H317.68ZM344.304 384.904V395.304H475.344V384.904H344.304ZM321.84 363.896V396.552H336.4V375.336H482.624V396.552H497.6V363.896H321.84ZM601.808 335.192H712.256V345.384H601.808V335.192ZM601.808 315.848H712.256V325.832H601.808V315.848ZM586.832 306.28V355.16H727.648V306.28H586.832ZM649.232 372.632V490.776H664.624V372.632H649.232ZM604.096 432.744H710.384V443.144H604.096V432.744ZM604.096 413.816H710.384V424.008H604.096V413.816ZM589.536 404.872V452.296H725.568V404.872H589.536ZM565.2 461.864V473.512H750.32V461.864H565.2ZM591.824 384.904V395.304H722.864V384.904H591.824ZM569.36 363.896V396.552H583.92V375.336H730.144V396.552H745.12V363.896H569.36ZM849.328 335.192H959.776V345.384H849.328V335.192ZM849.328 315.848H959.776V325.832H849.328V315.848ZM834.352 306.28V355.16H975.168V306.28H834.352ZM896.752 372.632V490.776H912.144V372.632H896.752ZM851.616 432.744H957.904V443.144H851.616V432.744ZM851.616 413.816H957.904V424.008H851.616V413.816ZM837.056 404.872V452.296H973.088V404.872H837.056ZM812.72 461.864V473.512H997.84V461.864H812.72ZM839.344 384.904V395.304H970.384V384.904H839.344ZM816.88 363.896V396.552H831.44V375.336H977.664V396.552H992.64V363.896H816.88ZM106.768 595.192H217.216V605.384H106.768V595.192ZM106.768 575.848H217.216V585.832H106.768V575.848ZM91.792 566.28V615.16H232.608V566.28H91.792ZM154.192 632.632V750.776H169.584V632.632H154.192ZM109.056 692.744H215.344V703.144H109.056V692.744ZM109.056 673.816H215.344V684.008H109.056V673.816ZM94.496 664.872V712.296H230.528V664.872H94.496ZM70.16 721.864V733.512H255.28V721.864H70.16ZM96.784 644.904V655.304H227.824V644.904H96.784ZM74.32 623.896V656.552H88.88V635.336H235.104V656.552H250.08V623.896H74.32ZM354.288 595.192H464.736V605.384H354.288V595.192ZM354.288 575.848H464.736V585.832H354.288V575.848ZM339.312 566.28V615.16H480.128V566.28H339.312ZM401.712 632.632V750.776H417.104V632.632H401.712ZM356.576 692.744H462.864V703.144H356.576V692.744ZM356.576 673.816H462.864V684.008H356.576V673.816ZM342.016 664.872V712.296H478.048V664.872H342.016ZM317.68 721.864V733.512H502.8V721.864H317.68ZM344.304 644.904V655.304H475.344V644.904H344.304ZM321.84 623.896V656.552H336.4V635.336H482.624V656.552H497.6V623.896H321.84ZM601.808 595.192H712.256V605.384H601.808V595.192ZM601.808 575.848H712.256V585.832H601.808V575.848ZM586.832 566.28V615.16H727.648V566.28H586.832ZM649.232 632.632V750.776H664.624V632.632H649.232ZM604.096 692.744H710.384V703.144H604.096V692.744ZM604.096 673.816H710.384V684.008H604.096V673.816ZM589.536 664.872V712.296H725.568V664.872H589.536ZM565.2 721.864V733.512H750.32V721.864H565.2ZM591.824 644.904V655.304H722.864V644.904H591.824ZM569.36 623.896V656.552H583.92V635.336H730.144V656.552H745.12V623.896H569.36ZM849.328 595.192H959.776V605.384H849.328V595.192ZM849.328 575.848H959.776V585.832H849.328V575.848ZM834.352 566.28V615.16H975.168V566.28H834.352ZM896.752 632.632V750.776H912.144V632.632H896.752ZM851.616 692.744H957.904V703.144H851.616V692.744ZM851.616 673.816H957.904V684.008H851.616V673.816ZM837.056 664.872V712.296H973.088V664.872H837.056ZM812.72 721.864V733.512H997.84V721.864H812.72ZM839.344 644.904V655.304H970.384V644.904H839.344ZM816.88 623.896V656.552H831.44V635.336H977.664V656.552H992.64V623.896H816.88Z" stroke="black" stroke-width="2" mask="url(#path-2-outside-1_51_2569)"/>
</g>
<defs>
<filter id="filter0_d_51_2569" x="0" y="0" width="1070" height="797" filterUnits="userSpaceOnUse" color-interpolation-filters="sRGB">
<feFlood flood-opacity="0" result="BackgroundImageFix"/>
<feColorMatrix in="SourceAlpha" type="matrix" values="0 0 0 0 0 0 0 0 0 0 0 0 0 0 0 0 0 0 127 0" result="hardAlpha"/>
<feOffset dy="4"/>
<feGaussianBlur stdDeviation="15"/>
<feComposite in2="hardAlpha" operator="out"/>
<feColorMatrix type="matrix" values="0 0 0 0 0 0 0 0 0 0 0 0 0 0 0 0 0 0 0.08 0"/>
<feBlend mode="normal" in2="BackgroundImageFix" result="effect1_dropShadow_51_2569"/>
<feBlend mode="normal" in="SourceGraphic" in2="effect1_dropShadow_51_2569" result="shape"/>
</filter>
</defs>
</svg>
