<svg width="1070" height="754" viewBox="0 0 1070 754" fill="none" xmlns="http://www.w3.org/2000/svg">
<g filter="url(#filter0_d_51_1127)">
<rect x="30" y="26" width="1010" height="737" fill="white"/>
</g>
<g opacity="0.3">
<mask id="path-2-outside-1_51_1127" maskUnits="userSpaceOnUse" x="39.1396" y="60.3701" width="987" height="649" fill="black">
<rect fill="white" x="39.1396" y="60.3701" width="987" height="649"/>
<path d="M175.69 654.18H177.3C181.286 636.854 185.35 619.833 189.49 603.12C193.63 586.254 197.846 569.003 202.14 551.37H230.2L191.56 708H161.66L135.9 607.26L111.06 708H80.9297L41.1396 551.37H69.1996L95.1897 654.18H96.5696L102.78 629.11C105.846 616.077 108.913 603.197 111.98 590.47C115.2 577.59 118.42 564.557 121.64 551.37H149.7L175.69 654.18ZM272.141 708H245.001V590.93H272.141V708ZM272.141 578.28H245.001V551.37H272.141V578.28ZM372.893 613.7H327.123C325.13 613.7 323.443 614.083 322.063 614.85C320.836 615.464 319.763 616.383 318.843 617.61C317.923 618.837 317.233 620.217 316.773 621.75C316.313 623.13 316.083 624.51 316.083 625.89C316.083 628.803 317.003 631.487 318.843 633.94C320.836 636.24 323.213 637.39 325.973 637.39H351.733C357.1 637.39 361.776 638.31 365.763 640.15C369.903 641.99 373.276 644.52 375.883 647.74C378.643 650.96 380.636 654.794 381.863 659.24C383.243 663.687 383.933 668.44 383.933 673.5V674.19C383.933 679.25 383.09 683.85 381.403 687.99C379.87 692.13 377.646 695.657 374.733 698.57C371.82 701.483 368.37 703.784 364.383 705.47C360.396 707.157 356.18 708 351.733 708H296.073V685.23H343.913C347.44 685.23 350.66 684.234 353.573 682.24C356.64 680.247 358.25 677.257 358.403 673.27V673.5C358.403 671.2 357.943 669.284 357.023 667.75C356.256 666.217 355.183 664.99 353.803 664.07C352.423 662.997 350.89 662.23 349.203 661.77C347.516 661.31 345.753 661.08 343.913 661.08H323.213C316.466 661.08 310.87 660.007 306.423 657.86C302.13 655.714 298.68 652.953 296.073 649.58C293.62 646.207 291.933 642.373 291.013 638.08C290.093 633.787 289.633 629.417 289.633 624.97C289.633 620.37 290.323 615.923 291.703 611.63C293.083 607.337 295.076 603.58 297.683 600.36C300.443 596.987 303.816 594.38 307.803 592.54C311.79 590.7 316.313 589.78 321.373 589.78H372.893V613.7ZM446.179 617.15C442.192 617.15 438.895 617.687 436.289 618.76C433.835 619.68 431.919 620.984 430.539 622.67C429.159 624.357 428.162 626.427 427.549 628.88C427.089 631.18 426.859 633.71 426.859 636.47V708H401.099V551.37H426.859V593.46C429.159 592.693 431.535 592.08 433.989 591.62C436.595 591.16 439.355 590.93 442.269 590.93H456.069C462.815 590.93 468.719 592.08 473.779 594.38C478.992 596.68 483.285 599.747 486.659 603.58C490.185 607.26 492.792 611.553 494.479 616.46C496.165 621.214 497.009 626.043 497.009 630.95V708H471.019V636.47C471.019 633.71 470.789 631.18 470.329 628.88C469.869 626.427 468.872 624.357 467.339 622.67C465.959 620.984 464.042 619.68 461.589 618.76C459.135 617.687 455.915 617.15 451.929 617.15H446.179ZM703.297 654.18H704.907C708.894 636.854 712.957 619.833 717.097 603.12C721.237 586.254 725.454 569.003 729.747 551.37H757.807L719.167 708H689.267L663.507 607.26L638.667 708H608.537L568.747 551.37H596.807L622.797 654.18H624.177L630.387 629.11C633.454 616.077 636.52 603.197 639.587 590.47C642.807 577.59 646.027 564.557 649.247 551.37H677.307L703.297 654.18ZM799.748 708H772.608V590.93H799.748V708ZM799.748 578.28H772.608V551.37H799.748V578.28ZM900.5 613.7H854.731C852.737 613.7 851.051 614.083 849.671 614.85C848.444 615.464 847.37 616.383 846.451 617.61C845.531 618.837 844.841 620.217 844.38 621.75C843.92 623.13 843.69 624.51 843.69 625.89C843.69 628.803 844.61 631.487 846.451 633.94C848.444 636.24 850.82 637.39 853.581 637.39H879.341C884.707 637.39 889.384 638.31 893.37 640.15C897.51 641.99 900.884 644.52 903.49 647.74C906.25 650.96 908.244 654.794 909.471 659.24C910.851 663.687 911.541 668.44 911.541 673.5V674.19C911.541 679.25 910.697 683.85 909.01 687.99C907.477 692.13 905.254 695.657 902.341 698.57C899.427 701.483 895.977 703.784 891.991 705.47C888.004 707.157 883.787 708 879.341 708H823.68V685.23H871.521C875.047 685.23 878.267 684.234 881.18 682.24C884.247 680.247 885.857 677.257 886.01 673.27V673.5C886.01 671.2 885.55 669.284 884.63 667.75C883.864 666.217 882.791 664.99 881.411 664.07C880.031 662.997 878.497 662.23 876.81 661.77C875.124 661.31 873.361 661.08 871.521 661.08H850.82C844.074 661.08 838.477 660.007 834.031 657.86C829.737 655.714 826.287 652.953 823.68 649.58C821.227 646.207 819.54 642.373 818.62 638.08C817.701 633.787 817.24 629.417 817.24 624.97C817.24 620.37 817.93 615.923 819.31 611.63C820.69 607.337 822.684 603.58 825.291 600.36C828.051 596.987 831.424 594.38 835.411 592.54C839.397 590.7 843.921 589.78 848.981 589.78H900.5V613.7ZM973.786 617.15C969.799 617.15 966.503 617.687 963.896 618.76C961.443 619.68 959.526 620.984 958.146 622.67C956.766 624.357 955.769 626.427 955.156 628.88C954.696 631.18 954.466 633.71 954.466 636.47V708H928.706V551.37H954.466V593.46C956.766 592.693 959.143 592.08 961.596 591.62C964.203 591.16 966.963 590.93 969.876 590.93H983.676C990.423 590.93 996.326 592.08 1001.39 594.38C1006.6 596.68 1010.89 599.747 1014.27 603.58C1017.79 607.26 1020.4 611.553 1022.09 616.46C1023.77 621.214 1024.62 626.043 1024.62 630.95V708H998.626V636.47C998.626 633.71 998.396 631.18 997.936 628.88C997.476 626.427 996.479 624.357 994.946 622.67C993.566 620.984 991.649 619.68 989.196 618.76C986.743 617.687 983.523 617.15 979.536 617.15H973.786Z"/>
<path d="M175.69 164.18H177.3C181.287 146.853 185.35 129.833 189.49 113.12C193.63 96.2535 197.847 79.0035 202.14 61.3701H230.2L191.56 218H161.66L135.9 117.26L111.06 218H80.93L41.14 61.3701H69.2L95.19 164.18H96.57L102.78 139.11C105.847 126.077 108.913 113.197 111.98 100.47C115.2 87.5901 118.42 74.5568 121.64 61.3701H149.7L175.69 164.18ZM272.141 218H245.001V100.93H272.141V218ZM272.141 88.2801H245.001V61.3701H272.141V88.2801ZM372.893 123.7H327.123C325.13 123.7 323.443 124.083 322.063 124.85C320.837 125.463 319.763 126.383 318.843 127.61C317.923 128.837 317.233 130.217 316.773 131.75C316.313 133.13 316.083 134.51 316.083 135.89C316.083 138.803 317.003 141.487 318.843 143.94C320.837 146.24 323.213 147.39 325.973 147.39H351.733C357.1 147.39 361.777 148.31 365.763 150.15C369.903 151.99 373.277 154.52 375.883 157.74C378.643 160.96 380.637 164.793 381.863 169.24C383.243 173.687 383.933 178.44 383.933 183.5V184.19C383.933 189.25 383.09 193.85 381.403 197.99C379.87 202.13 377.647 205.657 374.733 208.57C371.82 211.483 368.37 213.783 364.383 215.47C360.397 217.157 356.18 218 351.733 218H296.073V195.23H343.913C347.44 195.23 350.66 194.233 353.573 192.24C356.64 190.247 358.25 187.257 358.403 183.27V183.5C358.403 181.2 357.943 179.283 357.023 177.75C356.257 176.217 355.183 174.99 353.803 174.07C352.423 172.997 350.89 172.23 349.203 171.77C347.517 171.31 345.753 171.08 343.913 171.08H323.213C316.467 171.08 310.87 170.007 306.423 167.86C302.13 165.713 298.68 162.953 296.073 159.58C293.62 156.207 291.933 152.373 291.013 148.08C290.093 143.787 289.633 139.417 289.633 134.97C289.633 130.37 290.323 125.923 291.703 121.63C293.083 117.337 295.077 113.58 297.683 110.36C300.443 106.987 303.817 104.38 307.803 102.54C311.79 100.7 316.313 99.7801 321.373 99.7801H372.893V123.7ZM446.179 127.15C442.192 127.15 438.896 127.687 436.289 128.76C433.836 129.68 431.919 130.983 430.539 132.67C429.159 134.357 428.162 136.427 427.549 138.88C427.089 141.18 426.859 143.71 426.859 146.47V218H401.099V61.3701H426.859V103.46C429.159 102.693 431.536 102.08 433.989 101.62C436.596 101.16 439.356 100.93 442.269 100.93H456.069C462.816 100.93 468.719 102.08 473.779 104.38C478.992 106.68 483.286 109.747 486.659 113.58C490.186 117.26 492.792 121.553 494.479 126.46C496.166 131.213 497.009 136.043 497.009 140.95V218H471.019V146.47C471.019 143.71 470.789 141.18 470.329 138.88C469.869 136.427 468.872 134.357 467.339 132.67C465.959 130.983 464.042 129.68 461.589 128.76C459.136 127.687 455.916 127.15 451.929 127.15H446.179ZM703.297 164.18H704.907C708.894 146.853 712.957 129.833 717.097 113.12C721.237 96.2535 725.454 79.0035 729.747 61.3701H757.807L719.167 218H689.267L663.507 117.26L638.667 218H608.537L568.747 61.3701H596.807L622.797 164.18H624.177L630.387 139.11C633.454 126.077 636.521 113.197 639.587 100.47C642.807 87.5901 646.027 74.5568 649.247 61.3701H677.307L703.297 164.18ZM799.748 218H772.608V100.93H799.748V218ZM799.748 88.2801H772.608V61.3701H799.748V88.2801ZM900.501 123.7H854.731C852.738 123.7 851.051 124.083 849.671 124.85C848.444 125.463 847.371 126.383 846.451 127.61C845.531 128.837 844.841 130.217 844.381 131.75C843.921 133.13 843.691 134.51 843.691 135.89C843.691 138.803 844.611 141.487 846.451 143.94C848.444 146.24 850.821 147.39 853.581 147.39H879.341C884.708 147.39 889.384 148.31 893.371 150.15C897.511 151.99 900.884 154.52 903.491 157.74C906.251 160.96 908.244 164.793 909.471 169.24C910.851 173.687 911.541 178.44 911.541 183.5V184.19C911.541 189.25 910.698 193.85 909.011 197.99C907.478 202.13 905.254 205.657 902.341 208.57C899.428 211.483 895.978 213.783 891.991 215.47C888.004 217.157 883.788 218 879.341 218H823.681V195.23H871.521C875.048 195.23 878.268 194.233 881.181 192.24C884.248 190.247 885.858 187.257 886.011 183.27V183.5C886.011 181.2 885.551 179.283 884.631 177.75C883.864 176.217 882.791 174.99 881.411 174.07C880.031 172.997 878.498 172.23 876.811 171.77C875.124 171.31 873.361 171.08 871.521 171.08H850.821C844.074 171.08 838.478 170.007 834.031 167.86C829.738 165.713 826.288 162.953 823.681 159.58C821.228 156.207 819.541 152.373 818.621 148.08C817.701 143.787 817.241 139.417 817.241 134.97C817.241 130.37 817.931 125.923 819.311 121.63C820.691 117.337 822.684 113.58 825.291 110.36C828.051 106.987 831.424 104.38 835.411 102.54C839.398 100.7 843.921 99.7801 848.981 99.7801H900.501V123.7ZM973.786 127.15C969.8 127.15 966.503 127.687 963.896 128.76C961.443 129.68 959.526 130.983 958.146 132.67C956.766 134.357 955.77 136.427 955.156 138.88C954.696 141.18 954.466 143.71 954.466 146.47V218H928.706V61.3701H954.466V103.46C956.766 102.693 959.143 102.08 961.596 101.62C964.203 101.16 966.963 100.93 969.876 100.93H983.676C990.423 100.93 996.326 102.08 1001.39 104.38C1006.6 106.68 1010.89 109.747 1014.27 113.58C1017.79 117.26 1020.4 121.553 1022.09 126.46C1023.77 131.213 1024.62 136.043 1024.62 140.95V218H998.626V146.47C998.626 143.71 998.396 141.18 997.936 138.88C997.476 136.427 996.48 134.357 994.946 132.67C993.566 130.983 991.65 129.68 989.196 128.76C986.743 127.687 983.523 127.15 979.536 127.15H973.786Z"/>
<path d="M175.69 405.18H177.3C181.286 387.853 185.35 370.833 189.49 354.12C193.63 337.253 197.846 320.003 202.14 302.37H230.2L191.56 459H161.66L135.9 358.26L111.06 459H80.9297L41.1396 302.37H69.1996L95.1897 405.18H96.5696L102.78 380.11C105.846 367.077 108.913 354.197 111.98 341.47C115.2 328.59 118.42 315.557 121.64 302.37H149.7L175.69 405.18ZM272.141 459H245.001V341.93H272.141V459ZM272.141 329.28H245.001V302.37H272.141V329.28ZM372.893 364.7H327.123C325.13 364.7 323.443 365.083 322.063 365.85C320.836 366.463 319.763 367.383 318.843 368.61C317.923 369.837 317.233 371.217 316.773 372.75C316.313 374.13 316.083 375.51 316.083 376.89C316.083 379.803 317.003 382.487 318.843 384.94C320.836 387.24 323.213 388.39 325.973 388.39H351.733C357.1 388.39 361.776 389.31 365.763 391.15C369.903 392.99 373.276 395.52 375.883 398.74C378.643 401.96 380.636 405.793 381.863 410.24C383.243 414.687 383.933 419.44 383.933 424.5V425.19C383.933 430.25 383.09 434.85 381.403 438.99C379.87 443.13 377.646 446.657 374.733 449.57C371.82 452.483 368.37 454.783 364.383 456.47C360.396 458.157 356.18 459 351.733 459H296.073V436.23H343.913C347.44 436.23 350.66 435.233 353.573 433.24C356.64 431.247 358.25 428.257 358.403 424.27V424.5C358.403 422.2 357.943 420.283 357.023 418.75C356.256 417.217 355.183 415.99 353.803 415.07C352.423 413.997 350.89 413.23 349.203 412.77C347.516 412.31 345.753 412.08 343.913 412.08H323.213C316.466 412.08 310.87 411.007 306.423 408.86C302.13 406.713 298.68 403.953 296.073 400.58C293.62 397.207 291.933 393.373 291.013 389.08C290.093 384.787 289.633 380.417 289.633 375.97C289.633 371.37 290.323 366.923 291.703 362.63C293.083 358.337 295.076 354.58 297.683 351.36C300.443 347.987 303.816 345.38 307.803 343.54C311.79 341.7 316.313 340.78 321.373 340.78H372.893V364.7ZM446.179 368.15C442.192 368.15 438.895 368.687 436.289 369.76C433.835 370.68 431.919 371.983 430.539 373.67C429.159 375.357 428.162 377.427 427.549 379.88C427.089 382.18 426.859 384.71 426.859 387.47V459H401.099V302.37H426.859V344.46C429.159 343.693 431.535 343.08 433.989 342.62C436.595 342.16 439.355 341.93 442.269 341.93H456.069C462.815 341.93 468.719 343.08 473.779 345.38C478.992 347.68 483.285 350.747 486.659 354.58C490.185 358.26 492.792 362.553 494.479 367.46C496.165 372.213 497.009 377.043 497.009 381.95V459H471.019V387.47C471.019 384.71 470.789 382.18 470.329 379.88C469.869 377.427 468.872 375.357 467.339 373.67C465.959 371.983 464.042 370.68 461.589 369.76C459.135 368.687 455.915 368.15 451.929 368.15H446.179ZM703.297 405.18H704.907C708.894 387.853 712.957 370.833 717.097 354.12C721.237 337.253 725.454 320.003 729.747 302.37H757.807L719.167 459H689.267L663.507 358.26L638.667 459H608.537L568.747 302.37H596.807L622.797 405.18H624.177L630.387 380.11C633.454 367.077 636.52 354.197 639.587 341.47C642.807 328.59 646.027 315.557 649.247 302.37H677.307L703.297 405.18ZM799.748 459H772.608V341.93H799.748V459ZM799.748 329.28H772.608V302.37H799.748V329.28ZM900.5 364.7H854.731C852.737 364.7 851.051 365.083 849.671 365.85C848.444 366.463 847.37 367.383 846.451 368.61C845.531 369.837 844.841 371.217 844.38 372.75C843.92 374.13 843.69 375.51 843.69 376.89C843.69 379.803 844.61 382.487 846.451 384.94C848.444 387.24 850.82 388.39 853.581 388.39H879.341C884.707 388.39 889.384 389.31 893.37 391.15C897.51 392.99 900.884 395.52 903.49 398.74C906.25 401.96 908.244 405.793 909.471 410.24C910.851 414.687 911.541 419.44 911.541 424.5V425.19C911.541 430.25 910.697 434.85 909.01 438.99C907.477 443.13 905.254 446.657 902.341 449.57C899.427 452.483 895.977 454.783 891.991 456.47C888.004 458.157 883.787 459 879.341 459H823.68V436.23H871.521C875.047 436.23 878.267 435.233 881.18 433.24C884.247 431.247 885.857 428.257 886.01 424.27V424.5C886.01 422.2 885.55 420.283 884.63 418.75C883.864 417.217 882.791 415.99 881.411 415.07C880.031 413.997 878.497 413.23 876.81 412.77C875.124 412.31 873.361 412.08 871.521 412.08H850.82C844.074 412.08 838.477 411.007 834.031 408.86C829.737 406.713 826.287 403.953 823.68 400.58C821.227 397.207 819.54 393.373 818.62 389.08C817.701 384.787 817.24 380.417 817.24 375.97C817.24 371.37 817.93 366.923 819.31 362.63C820.69 358.337 822.684 354.58 825.291 351.36C828.051 347.987 831.424 345.38 835.411 343.54C839.397 341.7 843.921 340.78 848.981 340.78H900.5V364.7ZM973.786 368.15C969.799 368.15 966.503 368.687 963.896 369.76C961.443 370.68 959.526 371.983 958.146 373.67C956.766 375.357 955.769 377.427 955.156 379.88C954.696 382.18 954.466 384.71 954.466 387.47V459H928.706V302.37H954.466V344.46C956.766 343.693 959.143 343.08 961.596 342.62C964.203 342.16 966.963 341.93 969.876 341.93H983.676C990.423 341.93 996.326 343.08 1001.39 345.38C1006.6 347.68 1010.89 350.747 1014.27 354.58C1017.79 358.26 1020.4 362.553 1022.09 367.46C1023.77 372.213 1024.62 377.043 1024.62 381.95V459H998.626V387.47C998.626 384.71 998.396 382.18 997.936 379.88C997.476 377.427 996.479 375.357 994.946 373.67C993.566 371.983 991.649 370.68 989.196 369.76C986.743 368.687 983.523 368.15 979.536 368.15H973.786Z"/>
</mask>
<path d="M175.69 654.18H177.3C181.286 636.854 185.35 619.833 189.49 603.12C193.63 586.254 197.846 569.003 202.14 551.37H230.2L191.56 708H161.66L135.9 607.26L111.06 708H80.9297L41.1396 551.37H69.1996L95.1897 654.18H96.5696L102.78 629.11C105.846 616.077 108.913 603.197 111.98 590.47C115.2 577.59 118.42 564.557 121.64 551.37H149.7L175.69 654.18ZM272.141 708H245.001V590.93H272.141V708ZM272.141 578.28H245.001V551.37H272.141V578.28ZM372.893 613.7H327.123C325.13 613.7 323.443 614.083 322.063 614.85C320.836 615.464 319.763 616.383 318.843 617.61C317.923 618.837 317.233 620.217 316.773 621.75C316.313 623.13 316.083 624.51 316.083 625.89C316.083 628.803 317.003 631.487 318.843 633.94C320.836 636.24 323.213 637.39 325.973 637.39H351.733C357.1 637.39 361.776 638.31 365.763 640.15C369.903 641.99 373.276 644.52 375.883 647.74C378.643 650.96 380.636 654.794 381.863 659.24C383.243 663.687 383.933 668.44 383.933 673.5V674.19C383.933 679.25 383.09 683.85 381.403 687.99C379.87 692.13 377.646 695.657 374.733 698.57C371.82 701.483 368.37 703.784 364.383 705.47C360.396 707.157 356.18 708 351.733 708H296.073V685.23H343.913C347.44 685.23 350.66 684.234 353.573 682.24C356.64 680.247 358.25 677.257 358.403 673.27V673.5C358.403 671.2 357.943 669.284 357.023 667.75C356.256 666.217 355.183 664.99 353.803 664.07C352.423 662.997 350.89 662.23 349.203 661.77C347.516 661.31 345.753 661.08 343.913 661.08H323.213C316.466 661.08 310.87 660.007 306.423 657.86C302.13 655.714 298.68 652.953 296.073 649.58C293.62 646.207 291.933 642.373 291.013 638.08C290.093 633.787 289.633 629.417 289.633 624.97C289.633 620.37 290.323 615.923 291.703 611.63C293.083 607.337 295.076 603.58 297.683 600.36C300.443 596.987 303.816 594.38 307.803 592.54C311.79 590.7 316.313 589.78 321.373 589.78H372.893V613.7ZM446.179 617.15C442.192 617.15 438.895 617.687 436.289 618.76C433.835 619.68 431.919 620.984 430.539 622.67C429.159 624.357 428.162 626.427 427.549 628.88C427.089 631.18 426.859 633.71 426.859 636.47V708H401.099V551.37H426.859V593.46C429.159 592.693 431.535 592.08 433.989 591.62C436.595 591.16 439.355 590.93 442.269 590.93H456.069C462.815 590.93 468.719 592.08 473.779 594.38C478.992 596.68 483.285 599.747 486.659 603.58C490.185 607.26 492.792 611.553 494.479 616.46C496.165 621.214 497.009 626.043 497.009 630.95V708H471.019V636.47C471.019 633.71 470.789 631.18 470.329 628.88C469.869 626.427 468.872 624.357 467.339 622.67C465.959 620.984 464.042 619.68 461.589 618.76C459.135 617.687 455.915 617.15 451.929 617.15H446.179ZM703.297 654.18H704.907C708.894 636.854 712.957 619.833 717.097 603.12C721.237 586.254 725.454 569.003 729.747 551.37H757.807L719.167 708H689.267L663.507 607.26L638.667 708H608.537L568.747 551.37H596.807L622.797 654.18H624.177L630.387 629.11C633.454 616.077 636.52 603.197 639.587 590.47C642.807 577.59 646.027 564.557 649.247 551.37H677.307L703.297 654.18ZM799.748 708H772.608V590.93H799.748V708ZM799.748 578.28H772.608V551.37H799.748V578.28ZM900.5 613.7H854.731C852.737 613.7 851.051 614.083 849.671 614.85C848.444 615.464 847.37 616.383 846.451 617.61C845.531 618.837 844.841 620.217 844.38 621.75C843.92 623.13 843.69 624.51 843.69 625.89C843.69 628.803 844.61 631.487 846.451 633.94C848.444 636.24 850.82 637.39 853.581 637.39H879.341C884.707 637.39 889.384 638.31 893.37 640.15C897.51 641.99 900.884 644.52 903.49 647.74C906.25 650.96 908.244 654.794 909.471 659.24C910.851 663.687 911.541 668.44 911.541 673.5V674.19C911.541 679.25 910.697 683.85 909.01 687.99C907.477 692.13 905.254 695.657 902.341 698.57C899.427 701.483 895.977 703.784 891.991 705.47C888.004 707.157 883.787 708 879.341 708H823.68V685.23H871.521C875.047 685.23 878.267 684.234 881.18 682.24C884.247 680.247 885.857 677.257 886.01 673.27V673.5C886.01 671.2 885.55 669.284 884.63 667.75C883.864 666.217 882.791 664.99 881.411 664.07C880.031 662.997 878.497 662.23 876.81 661.77C875.124 661.31 873.361 661.08 871.521 661.08H850.82C844.074 661.08 838.477 660.007 834.031 657.86C829.737 655.714 826.287 652.953 823.68 649.58C821.227 646.207 819.54 642.373 818.62 638.08C817.701 633.787 817.24 629.417 817.24 624.97C817.24 620.37 817.93 615.923 819.31 611.63C820.69 607.337 822.684 603.58 825.291 600.36C828.051 596.987 831.424 594.38 835.411 592.54C839.397 590.7 843.921 589.78 848.981 589.78H900.5V613.7ZM973.786 617.15C969.799 617.15 966.503 617.687 963.896 618.76C961.443 619.68 959.526 620.984 958.146 622.67C956.766 624.357 955.769 626.427 955.156 628.88C954.696 631.18 954.466 633.71 954.466 636.47V708H928.706V551.37H954.466V593.46C956.766 592.693 959.143 592.08 961.596 591.62C964.203 591.16 966.963 590.93 969.876 590.93H983.676C990.423 590.93 996.326 592.08 1001.39 594.38C1006.6 596.68 1010.89 599.747 1014.27 603.58C1017.79 607.26 1020.4 611.553 1022.09 616.46C1023.77 621.214 1024.62 626.043 1024.62 630.95V708H998.626V636.47C998.626 633.71 998.396 631.18 997.936 628.88C997.476 626.427 996.479 624.357 994.946 622.67C993.566 620.984 991.649 619.68 989.196 618.76C986.743 617.687 983.523 617.15 979.536 617.15H973.786Z" stroke="black" stroke-width="2" mask="url(#path-2-outside-1_51_1127)"/>
<path d="M175.69 164.18H177.3C181.287 146.853 185.35 129.833 189.49 113.12C193.63 96.2535 197.847 79.0035 202.14 61.3701H230.2L191.56 218H161.66L135.9 117.26L111.06 218H80.93L41.14 61.3701H69.2L95.19 164.18H96.57L102.78 139.11C105.847 126.077 108.913 113.197 111.98 100.47C115.2 87.5901 118.42 74.5568 121.64 61.3701H149.7L175.69 164.18ZM272.141 218H245.001V100.93H272.141V218ZM272.141 88.2801H245.001V61.3701H272.141V88.2801ZM372.893 123.7H327.123C325.13 123.7 323.443 124.083 322.063 124.85C320.837 125.463 319.763 126.383 318.843 127.61C317.923 128.837 317.233 130.217 316.773 131.75C316.313 133.13 316.083 134.51 316.083 135.89C316.083 138.803 317.003 141.487 318.843 143.94C320.837 146.24 323.213 147.39 325.973 147.39H351.733C357.1 147.39 361.777 148.31 365.763 150.15C369.903 151.99 373.277 154.52 375.883 157.74C378.643 160.96 380.637 164.793 381.863 169.24C383.243 173.687 383.933 178.44 383.933 183.5V184.19C383.933 189.25 383.09 193.85 381.403 197.99C379.87 202.13 377.647 205.657 374.733 208.57C371.82 211.483 368.37 213.783 364.383 215.47C360.397 217.157 356.18 218 351.733 218H296.073V195.23H343.913C347.44 195.23 350.66 194.233 353.573 192.24C356.64 190.247 358.25 187.257 358.403 183.27V183.5C358.403 181.2 357.943 179.283 357.023 177.75C356.257 176.217 355.183 174.99 353.803 174.07C352.423 172.997 350.89 172.23 349.203 171.77C347.517 171.31 345.753 171.08 343.913 171.08H323.213C316.467 171.08 310.87 170.007 306.423 167.86C302.13 165.713 298.68 162.953 296.073 159.58C293.62 156.207 291.933 152.373 291.013 148.08C290.093 143.787 289.633 139.417 289.633 134.97C289.633 130.37 290.323 125.923 291.703 121.63C293.083 117.337 295.077 113.58 297.683 110.36C300.443 106.987 303.817 104.38 307.803 102.54C311.79 100.7 316.313 99.7801 321.373 99.7801H372.893V123.7ZM446.179 127.15C442.192 127.15 438.896 127.687 436.289 128.76C433.836 129.68 431.919 130.983 430.539 132.67C429.159 134.357 428.162 136.427 427.549 138.88C427.089 141.18 426.859 143.71 426.859 146.47V218H401.099V61.3701H426.859V103.46C429.159 102.693 431.536 102.08 433.989 101.62C436.596 101.16 439.356 100.93 442.269 100.93H456.069C462.816 100.93 468.719 102.08 473.779 104.38C478.992 106.68 483.286 109.747 486.659 113.58C490.186 117.26 492.792 121.553 494.479 126.46C496.166 131.213 497.009 136.043 497.009 140.95V218H471.019V146.47C471.019 143.71 470.789 141.18 470.329 138.88C469.869 136.427 468.872 134.357 467.339 132.67C465.959 130.983 464.042 129.68 461.589 128.76C459.136 127.687 455.916 127.15 451.929 127.15H446.179ZM703.297 164.18H704.907C708.894 146.853 712.957 129.833 717.097 113.12C721.237 96.2535 725.454 79.0035 729.747 61.3701H757.807L719.167 218H689.267L663.507 117.26L638.667 218H608.537L568.747 61.3701H596.807L622.797 164.18H624.177L630.387 139.11C633.454 126.077 636.521 113.197 639.587 100.47C642.807 87.5901 646.027 74.5568 649.247 61.3701H677.307L703.297 164.18ZM799.748 218H772.608V100.93H799.748V218ZM799.748 88.2801H772.608V61.3701H799.748V88.2801ZM900.501 123.7H854.731C852.738 123.7 851.051 124.083 849.671 124.85C848.444 125.463 847.371 126.383 846.451 127.61C845.531 128.837 844.841 130.217 844.381 131.75C843.921 133.13 843.691 134.51 843.691 135.89C843.691 138.803 844.611 141.487 846.451 143.94C848.444 146.24 850.821 147.39 853.581 147.39H879.341C884.708 147.39 889.384 148.31 893.371 150.15C897.511 151.99 900.884 154.52 903.491 157.74C906.251 160.96 908.244 164.793 909.471 169.24C910.851 173.687 911.541 178.44 911.541 183.5V184.19C911.541 189.25 910.698 193.85 909.011 197.99C907.478 202.13 905.254 205.657 902.341 208.57C899.428 211.483 895.978 213.783 891.991 215.47C888.004 217.157 883.788 218 879.341 218H823.681V195.23H871.521C875.048 195.23 878.268 194.233 881.181 192.24C884.248 190.247 885.858 187.257 886.011 183.27V183.5C886.011 181.2 885.551 179.283 884.631 177.75C883.864 176.217 882.791 174.99 881.411 174.07C880.031 172.997 878.498 172.23 876.811 171.77C875.124 171.31 873.361 171.08 871.521 171.08H850.821C844.074 171.08 838.478 170.007 834.031 167.86C829.738 165.713 826.288 162.953 823.681 159.58C821.228 156.207 819.541 152.373 818.621 148.08C817.701 143.787 817.241 139.417 817.241 134.97C817.241 130.37 817.931 125.923 819.311 121.63C820.691 117.337 822.684 113.58 825.291 110.36C828.051 106.987 831.424 104.38 835.411 102.54C839.398 100.7 843.921 99.7801 848.981 99.7801H900.501V123.7ZM973.786 127.15C969.8 127.15 966.503 127.687 963.896 128.76C961.443 129.68 959.526 130.983 958.146 132.67C956.766 134.357 955.77 136.427 955.156 138.88C954.696 141.18 954.466 143.71 954.466 146.47V218H928.706V61.3701H954.466V103.46C956.766 102.693 959.143 102.08 961.596 101.62C964.203 101.16 966.963 100.93 969.876 100.93H983.676C990.423 100.93 996.326 102.08 1001.39 104.38C1006.6 106.68 1010.89 109.747 1014.27 113.58C1017.79 117.26 1020.4 121.553 1022.09 126.46C1023.77 131.213 1024.62 136.043 1024.62 140.95V218H998.626V146.47C998.626 143.71 998.396 141.18 997.936 138.88C997.476 136.427 996.48 134.357 994.946 132.67C993.566 130.983 991.65 129.68 989.196 128.76C986.743 127.687 983.523 127.15 979.536 127.15H973.786Z" stroke="black" stroke-width="2" mask="url(#path-2-outside-1_51_1127)"/>
<path d="M175.69 405.18H177.3C181.286 387.853 185.35 370.833 189.49 354.12C193.63 337.253 197.846 320.003 202.14 302.37H230.2L191.56 459H161.66L135.9 358.26L111.06 459H80.9297L41.1396 302.37H69.1996L95.1897 405.18H96.5696L102.78 380.11C105.846 367.077 108.913 354.197 111.98 341.47C115.2 328.59 118.42 315.557 121.64 302.37H149.7L175.69 405.18ZM272.141 459H245.001V341.93H272.141V459ZM272.141 329.28H245.001V302.37H272.141V329.28ZM372.893 364.7H327.123C325.13 364.7 323.443 365.083 322.063 365.85C320.836 366.463 319.763 367.383 318.843 368.61C317.923 369.837 317.233 371.217 316.773 372.75C316.313 374.13 316.083 375.51 316.083 376.89C316.083 379.803 317.003 382.487 318.843 384.94C320.836 387.24 323.213 388.39 325.973 388.39H351.733C357.1 388.39 361.776 389.31 365.763 391.15C369.903 392.99 373.276 395.52 375.883 398.74C378.643 401.96 380.636 405.793 381.863 410.24C383.243 414.687 383.933 419.44 383.933 424.5V425.19C383.933 430.25 383.09 434.85 381.403 438.99C379.87 443.13 377.646 446.657 374.733 449.57C371.82 452.483 368.37 454.783 364.383 456.47C360.396 458.157 356.18 459 351.733 459H296.073V436.23H343.913C347.44 436.23 350.66 435.233 353.573 433.24C356.64 431.247 358.25 428.257 358.403 424.27V424.5C358.403 422.2 357.943 420.283 357.023 418.75C356.256 417.217 355.183 415.99 353.803 415.07C352.423 413.997 350.89 413.23 349.203 412.77C347.516 412.31 345.753 412.08 343.913 412.08H323.213C316.466 412.08 310.87 411.007 306.423 408.86C302.13 406.713 298.68 403.953 296.073 400.58C293.62 397.207 291.933 393.373 291.013 389.08C290.093 384.787 289.633 380.417 289.633 375.97C289.633 371.37 290.323 366.923 291.703 362.63C293.083 358.337 295.076 354.58 297.683 351.36C300.443 347.987 303.816 345.38 307.803 343.54C311.79 341.7 316.313 340.78 321.373 340.78H372.893V364.7ZM446.179 368.15C442.192 368.15 438.895 368.687 436.289 369.76C433.835 370.68 431.919 371.983 430.539 373.67C429.159 375.357 428.162 377.427 427.549 379.88C427.089 382.18 426.859 384.71 426.859 387.47V459H401.099V302.37H426.859V344.46C429.159 343.693 431.535 343.08 433.989 342.62C436.595 342.16 439.355 341.93 442.269 341.93H456.069C462.815 341.93 468.719 343.08 473.779 345.38C478.992 347.68 483.285 350.747 486.659 354.58C490.185 358.26 492.792 362.553 494.479 367.46C496.165 372.213 497.009 377.043 497.009 381.95V459H471.019V387.47C471.019 384.71 470.789 382.18 470.329 379.88C469.869 377.427 468.872 375.357 467.339 373.67C465.959 371.983 464.042 370.68 461.589 369.76C459.135 368.687 455.915 368.15 451.929 368.15H446.179ZM703.297 405.18H704.907C708.894 387.853 712.957 370.833 717.097 354.12C721.237 337.253 725.454 320.003 729.747 302.37H757.807L719.167 459H689.267L663.507 358.26L638.667 459H608.537L568.747 302.37H596.807L622.797 405.18H624.177L630.387 380.11C633.454 367.077 636.52 354.197 639.587 341.47C642.807 328.59 646.027 315.557 649.247 302.37H677.307L703.297 405.18ZM799.748 459H772.608V341.93H799.748V459ZM799.748 329.28H772.608V302.37H799.748V329.28ZM900.5 364.7H854.731C852.737 364.7 851.051 365.083 849.671 365.85C848.444 366.463 847.37 367.383 846.451 368.61C845.531 369.837 844.841 371.217 844.38 372.75C843.92 374.13 843.69 375.51 843.69 376.89C843.69 379.803 844.61 382.487 846.451 384.94C848.444 387.24 850.82 388.39 853.581 388.39H879.341C884.707 388.39 889.384 389.31 893.37 391.15C897.51 392.99 900.884 395.52 903.49 398.74C906.25 401.96 908.244 405.793 909.471 410.24C910.851 414.687 911.541 419.44 911.541 424.5V425.19C911.541 430.25 910.697 434.85 909.01 438.99C907.477 443.13 905.254 446.657 902.341 449.57C899.427 452.483 895.977 454.783 891.991 456.47C888.004 458.157 883.787 459 879.341 459H823.68V436.23H871.521C875.047 436.23 878.267 435.233 881.18 433.24C884.247 431.247 885.857 428.257 886.01 424.27V424.5C886.01 422.2 885.55 420.283 884.63 418.75C883.864 417.217 882.791 415.99 881.411 415.07C880.031 413.997 878.497 413.23 876.81 412.77C875.124 412.31 873.361 412.08 871.521 412.08H850.82C844.074 412.08 838.477 411.007 834.031 408.86C829.737 406.713 826.287 403.953 823.68 400.58C821.227 397.207 819.54 393.373 818.62 389.08C817.701 384.787 817.24 380.417 817.24 375.97C817.24 371.37 817.93 366.923 819.31 362.63C820.69 358.337 822.684 354.58 825.291 351.36C828.051 347.987 831.424 345.38 835.411 343.54C839.397 341.7 843.921 340.78 848.981 340.78H900.5V364.7ZM973.786 368.15C969.799 368.15 966.503 368.687 963.896 369.76C961.443 370.68 959.526 371.983 958.146 373.67C956.766 375.357 955.769 377.427 955.156 379.88C954.696 382.18 954.466 384.71 954.466 387.47V459H928.706V302.37H954.466V344.46C956.766 343.693 959.143 343.08 961.596 342.62C964.203 342.16 966.963 341.93 969.876 341.93H983.676C990.423 341.93 996.326 343.08 1001.39 345.38C1006.6 347.68 1010.89 350.747 1014.27 354.58C1017.79 358.26 1020.4 362.553 1022.09 367.46C1023.77 372.213 1024.62 377.043 1024.62 381.95V459H998.626V387.47C998.626 384.71 998.396 382.18 997.936 379.88C997.476 377.427 996.479 375.357 994.946 373.67C993.566 371.983 991.649 370.68 989.196 369.76C986.743 368.687 983.523 368.15 979.536 368.15H973.786Z" stroke="black" stroke-width="2" mask="url(#path-2-outside-1_51_1127)"/>
</g>
<defs>
<filter id="filter0_d_51_1127" x="0" y="0" width="1070" height="797" filterUnits="userSpaceOnUse" color-interpolation-filters="sRGB">
<feFlood flood-opacity="0" result="BackgroundImageFix"/>
<feColorMatrix in="SourceAlpha" type="matrix" values="0 0 0 0 0 0 0 0 0 0 0 0 0 0 0 0 0 0 127 0" result="hardAlpha"/>
<feOffset dy="4"/>
<feGaussianBlur stdDeviation="15"/>
<feComposite in2="hardAlpha" operator="out"/>
<feColorMatrix type="matrix" values="0 0 0 0 0 0 0 0 0 0 0 0 0 0 0 0 0 0 0.08 0"/>
<feBlend mode="normal" in2="BackgroundImageFix" result="effect1_dropShadow_51_1127"/>
<feBlend mode="normal" in="SourceGraphic" in2="effect1_dropShadow_51_1127" result="shape"/>
</filter>
</defs>
</svg>
