<svg width="418" height="182" viewBox="0 0 418 182" fill="none" xmlns="http://www.w3.org/2000/svg">
<rect width="166" height="166" rx="7" transform="matrix(1 0 -0.5547 0.83205 251.08 0)" fill="#A64EB5"/>
<rect width="166" height="166" rx="7" transform="matrix(1 0 -0.5547 0.83205 92.0801 43)" fill="#C674D3"/>
<path d="M51.2523 156.588C51.687 157.4 53.27 157.4 54.7878 156.588L79.523 143.35C81.0408 142.538 81.9189 141.221 81.4841 140.408C81.0494 139.596 79.4665 139.596 77.9486 140.408L55.9618 152.175L49.6643 140.408C49.2296 139.596 47.6466 139.596 46.1288 140.408C44.6109 141.221 43.7329 142.538 44.1676 143.35L51.2523 156.588ZM108.912 69L51.5006 155.117H56.5006L113.912 69H108.912Z" fill="#A64EB5"/>
<path d="M359.16 24.5291C358.725 23.7168 357.142 23.7168 355.624 24.5291L330.889 37.7669C329.371 38.5793 328.493 39.8964 328.928 40.7087C329.363 41.521 330.946 41.521 332.464 40.7087L354.45 28.9417L360.748 40.7087C361.183 41.521 362.765 41.521 364.283 40.7087C365.801 39.8964 366.679 38.5793 366.244 37.7669L359.16 24.5291ZM301.5 112.117L358.911 26H353.911L296.5 112.117H301.5Z" fill="#C674D3"/>
</svg>
