<svg width="448" height="212" viewBox="0 0 448 212" fill="none" xmlns="http://www.w3.org/2000/svg">
<rect width="166" height="166" rx="7" transform="matrix(1 0 -0.5547 0.83205 281.08 0)" fill="#A64EB5"/>
<rect width="166" height="166" rx="7" transform="matrix(1 0 -0.5547 0.83205 92.0801 73)" fill="#C674D3"/>
<path d="M51.2523 186.588C51.687 187.4 53.27 187.4 54.7878 186.588L79.523 173.35C81.0408 172.538 81.9189 171.221 81.4841 170.408C81.0494 169.596 79.4665 169.596 77.9486 170.408L55.9618 182.175L49.6643 170.408C49.2296 169.596 47.6466 169.596 46.1288 170.408C44.6109 171.221 43.7329 172.538 44.1676 173.35L51.2523 186.588ZM108.912 99L51.5006 185.117H56.5006L113.912 99H108.912Z" fill="#A64EB5"/>
<path d="M389.16 24.5291C388.725 23.7168 387.142 23.7168 385.624 24.5291L360.889 37.7669C359.371 38.5793 358.493 39.8964 358.928 40.7087C359.363 41.521 360.946 41.521 362.464 40.7087L384.45 28.9417L390.748 40.7087C391.183 41.521 392.765 41.521 394.283 40.7087C395.801 39.8964 396.679 38.5793 396.244 37.7669L389.16 24.5291ZM331.5 112.117L388.911 26H383.911L326.5 112.117H331.5Z" fill="#C674D3"/>
</svg>
