<svg width="369" height="196" viewBox="0 0 369 196" fill="none" xmlns="http://www.w3.org/2000/svg">
<path fill-rule="evenodd" clip-rule="evenodd" d="M260.044 135.086L242.25 157.512C259.939 181.235 288.709 196.341 321.035 195.028C334.193 194.204 347.176 190.567 357.777 185.506L368.767 195.034L363.403 157.152L325.059 155.145L335.176 164.906C330.882 166.579 325.087 166.942 319.999 167.26C294.389 168.863 272.249 155.634 260.044 135.086Z" fill="#049975"/>
<path fill-rule="evenodd" clip-rule="evenodd" d="M0 154V178H172V154H0Z" fill="#049975"/>
<path fill-rule="evenodd" clip-rule="evenodd" d="M165.957 8.2051C119.307 12.2864 84.4726 53.6148 88.5681 100.426C89.6201 112.45 93.3412 123.597 98.277 133.823L89.6441 144.112L124.137 137.704L125.104 102.566L116.618 112.671C114.771 108.148 113.726 103.561 113.263 98.2656C110.402 65.5644 134.826 36.4492 168.173 33.5317C200.874 30.6707 229.99 55.1018 232.851 87.803C235.713 120.511 212.658 148.693 180.722 152.945L182.882 177.632C228.78 172.321 262.21 131.597 258.185 85.5866C254.089 38.7752 212.769 4.10965 165.957 8.20511L165.957 8.2051Z" fill="#2FBB56"/>
</svg>
