<svg width="385" height="188" viewBox="0 0 385 188" fill="none" xmlns="http://www.w3.org/2000/svg">
<path fill-rule="evenodd" clip-rule="evenodd" d="M276.214 127.086L258.42 149.512C276.109 173.235 304.879 188.341 337.205 187.028C350.363 186.204 363.346 182.567 373.947 177.506L384.937 187.034L379.573 149.152L341.229 147.145L351.346 156.906C347.052 158.579 341.257 158.942 336.169 159.26C310.559 160.863 288.419 147.634 276.214 127.086Z" fill="#049975"/>
<path fill-rule="evenodd" clip-rule="evenodd" d="M0 146V170H172V146H0Z" fill="#049975"/>
<path fill-rule="evenodd" clip-rule="evenodd" d="M183.381 0C136.553 0 98.2492 38.135 98.2492 85.1252C98.2492 97.1953 100.985 108.624 105.01 119.242L95.5137 128.738L130.434 125.361L134.459 90.4411L125.125 99.7686C123.68 95.1013 123.038 90.4411 123.038 85.1252C123.038 52.299 149.907 25.4233 183.381 25.4233C216.208 25.4233 243.083 52.299 243.083 85.1252C243.083 117.958 217.66 144.023 185.475 145.476V170.257C231.662 168.967 268.514 131.312 268.514 85.1252C268.514 38.135 230.372 1.2207e-05 183.381 1.2207e-05V0Z" fill="#2FBB56"/>
</svg>
